<svg xmlns="http://www.w3.org/2000/svg" viewBox="0 0 400 300" width="406" height="306" class="illustration styles_illustrationTablet__1DWOa"><g id="_276_boss_flatline" data-name="#276_boss_flatline"><polygon points="156.86 257.37 156.86 201.66 89.16 204.04 87.82 257.37 156.86 257.37" fill="#231f20"></polygon><path d="M156.86,257.87h-69a.55.55,0,0,1-.36-.15.54.54,0,0,1-.14-.36L88.66,204a.5.5,0,0,1,.48-.49l67.7-2.38a.43.43,0,0,1,.36.14.48.48,0,0,1,.16.36v55.71A.5.5,0,0,1,156.86,257.87Zm-68.53-1h68v-54.7l-66.71,2.35Z" fill="#231f20"></path><path d="M125.18,97.66s-21.06.35-33.79,14.5-2.23,98.73-2.23,98.73l69.75-.83s11-88,3.55-98.26S128.36,97.42,125.18,97.66Z" fill="#68e1fd"></path><polygon points="143.17 103.86 136.56 144.68 132.84 167.63 128.71 145.66 121.25 106.04 143.17 103.86" fill="#231f20"></polygon><path d="M132.84,168.13a.5.5,0,0,1-.49-.41l-11.59-61.59a.46.46,0,0,1,.09-.39.48.48,0,0,1,.35-.19l21.92-2.19a.45.45,0,0,1,.41.16.46.46,0,0,1,.13.42l-10.33,63.77a.5.5,0,0,1-.48.42Zm-11-61.65,11,58.26,9.78-60.32Z" fill="#231f20"></path><polygon points="133.9 118.65 136.56 144.68 132.84 167.63 128.71 145.66 130.94 119.65 127.79 111.05 129.37 110.87 138.04 110.17 133.9 118.65" fill="#fff"></polygon><path d="M132.84,168.13a.49.49,0,0,1-.49-.41l-4.14-22a.66.66,0,0,1,0-.14l2.22-25.89-3.11-8.5a.51.51,0,0,1,.42-.67l1.58-.17,8.68-.71a.48.48,0,0,1,.45.21.52.52,0,0,1,0,.51l-4.07,8.35,2.64,25.89a.62.62,0,0,1,0,.13l-3.72,23a.49.49,0,0,1-.48.42Zm-3.63-22.5,3.59,19.1,3.26-20.07-2.65-26a.51.51,0,0,1,0-.27l3.75-7.69-8.72.74,2.93,8a.76.76,0,0,1,0,.21Z" fill="#231f20"></path><path d="M154.55,64.8a14.92,14.92,0,0,1-1,9.67,3.47,3.47,0,0,1-1.77,1.9c-1.62.6-3.31-.81-4-2.25a14.32,14.32,0,0,1-1.21-5.27c-.21-2.44-1.85-11.32,1.52-12.29C152.2,55.37,154,62.45,154.55,64.8Z" fill="#fff"></path><path d="M151,77a4.49,4.49,0,0,1-3.67-2.67,15.07,15.07,0,0,1-1.26-5.45c0-.33-.08-.78-.15-1.31-.45-3.69-1.29-10.54,2-11.5a3.5,3.5,0,0,1,2.86.36c2.46,1.47,3.72,5.8,4.25,8.26h0a15.51,15.51,0,0,1-1,10,4,4,0,0,1-2,2.15A2.76,2.76,0,0,1,151,77Zm-2-20.09a2.68,2.68,0,0,0-.77.12c-2.5.72-1.67,7.51-1.32,10.42.07.54.13,1,.16,1.35a14.26,14.26,0,0,0,1.15,5.09c.57,1.14,2,2.52,3.41,2a2.9,2.9,0,0,0,1.49-1.64,14.52,14.52,0,0,0,1-9.35h0c-.4-1.85-1.56-6.29-3.79-7.62A2.53,2.53,0,0,0,149,56.92Z" fill="#231f20"></path><path d="M142.68,96.81c.25,2.28.34,12.85-.24,13.36-.22.19-4.1,6.56-12.37,3.3s-8.8-7.13-8.82-7.43c-1-10.58-1.39-21.25-1.9-31.87-.22-4.68-.35-9.34-.47-14-.06-2.71.35-5.41,2.44-7.35A11.45,11.45,0,0,1,126,50.35c3.69-1.05,7.62-.86,11.43-.42,5.57.65,10.46,2.61,12.3,8.35a34.24,34.24,0,0,1,1.17,7.28c.75,8.21,3.09,19.08-1.18,26.66C148.15,95,145.91,96.92,142.68,96.81Z" fill="#fff"></path><path d="M134.54,114.88a12.73,12.73,0,0,1-4.65-.94c-8.63-3.41-9.12-7.67-9.14-7.85-.84-9.09-1.27-18.39-1.69-27.38l-.21-4.51c-.23-5-.37-9.87-.47-14,0-2.24.16-5.47,2.6-7.73a11.86,11.86,0,0,1,4.89-2.58c3.94-1.12,8.09-.84,11.63-.43,4.43.52,10.57,2,12.71,8.68a32.22,32.22,0,0,1,1.16,7l0,.41c.12,1.39.3,2.85.48,4.37.89,7.57,1.9,16.15-1.73,22.59-1.76,3.12-4.09,4.74-6.95,4.84.14,2.58.41,12.49-.44,13.23l-.05.08A10,10,0,0,1,134.54,114.88Zm-2.39-64.8a21.94,21.94,0,0,0-6,.75,10.87,10.87,0,0,0-4.49,2.35c-1.66,1.54-2.36,3.69-2.28,7,.1,4.14.24,9.05.47,14l.21,4.52c.42,9,.84,18.26,1.69,27.33,0,0,.44,3.83,8.51,7,6.32,2.48,10-.81,11.66-3l.13-.17c.42-1,.39-10.56.13-13a.53.53,0,0,1,.13-.4.55.55,0,0,1,.39-.16c2.71.1,4.92-1.37,6.59-4.33,3.47-6.16,2.48-14.57,1.6-22-.18-1.52-.35-3-.48-4.39l0-.41a31.4,31.4,0,0,0-1.11-6.76c-1.5-4.69-5.27-7.23-11.88-8A45.44,45.44,0,0,0,132.15,50.08Zm10.29,60.09h0Z" fill="#231f20"></path><path d="M143.17,103.86s-7.84.17-11.15-4-2.57-7.26-2.57-7.26,7.41,4.6,13.25,4.25Z" fill="#231f20"></path><path d="M143,104.36c-1.24,0-8.19-.19-11.37-4.23-3.41-4.35-2.7-7.55-2.67-7.68a.5.5,0,0,1,.3-.35.48.48,0,0,1,.45,0c.07,0,7.34,4.52,13,4.17a.5.5,0,0,1,.52.46l.48,7.06a.5.5,0,0,1-.49.53Zm-13.12-11a10.2,10.2,0,0,0,2.54,6.12c2.63,3.36,8.45,3.79,10.22,3.85l-.41-6C137.41,97.37,131.82,94.5,129.88,93.39Z" fill="#231f20"></path><path d="M139.32,75.15s3.86,7.28,2.66,8.35-4.16,0-4.16,0" fill="#fff"></path><path d="M140.37,84.47a9.11,9.11,0,0,1-2.73-.52.51.51,0,0,1-.29-.65A.5.5,0,0,1,138,83c.7.25,2.86.83,3.65.12.46-.46-.85-4.15-2.76-7.74a.51.51,0,0,1,.21-.68.5.5,0,0,1,.68.21c1.21,2.29,3.89,7.75,2.54,9A2.88,2.88,0,0,1,140.37,84.47Z" fill="#231f20"></path><ellipse cx="134.56" cy="74.4" rx="1.6" ry="1.13" transform="translate(36.33 192.69) rotate(-79.23)" fill="#231f20"></ellipse><ellipse cx="146.52" cy="74.7" rx="1.13" ry="1.6" transform="translate(-7.38 16.7) rotate(-6.36)" fill="#231f20"></ellipse><path d="M136.75,78h-10a.51.51,0,0,1-.5-.43l-1.07-7a.48.48,0,0,1,.12-.4.49.49,0,0,1,.38-.18h12.15a.53.53,0,0,1,.38.18.51.51,0,0,1,.11.4l-1.07,7A.5.5,0,0,1,136.75,78Zm-9.58-1h9.15l.92-6h-11Z" fill="#231f20"></path><path d="M151.57,78h-10a.5.5,0,0,1-.49-.43l-1.07-7a.51.51,0,0,1,.11-.4.53.53,0,0,1,.38-.18h12.15a.49.49,0,0,1,.38.18.48.48,0,0,1,.12.4l-1.07,7A.51.51,0,0,1,151.57,78ZM142,77h9.15l.92-6h-11Z" fill="#231f20"></path><path d="M141.05,74.6a.51.51,0,0,1-.39-.18c-.43-.52-1.08-1.15-1.74-1.07a1.79,1.79,0,0,0-1.2.86.51.51,0,0,1-.69.18.49.49,0,0,1-.18-.68,2.83,2.83,0,0,1,2-1.36,3.14,3.14,0,0,1,2.6,1.43.51.51,0,0,1-.06.71A.5.5,0,0,1,141.05,74.6Z" fill="#231f20"></path><path d="M116.27,76.48a.5.5,0,0,1-.09-1l9.95-1.88a.5.5,0,0,1,.58.4.48.48,0,0,1-.39.58l-10,1.88Z" fill="#231f20"></path><path d="M124,66.68a17.68,17.68,0,0,0-.32-5.85,8,8,0,0,0-3.21-4.78,3,3,0,0,0-1.79-.56c-1.54.13-2.29,1.94-2.6,3.46a37.62,37.62,0,0,0,.22,15.81c.36,1.55,1,5.4,3.22,5.34,1.86,0,2.57-3.22,3-4.58A46.47,46.47,0,0,0,124,66.68Z" fill="#fff"></path><path d="M119.47,80.6c-2.4,0-3.15-3.44-3.56-5.3l-.09-.42a38.17,38.17,0,0,1-.23-16c.48-2.36,1.57-3.73,3-3.85a3.33,3.33,0,0,1,2.1.63,8.46,8.46,0,0,1,3.43,5.07,18.35,18.35,0,0,1,.33,6A45.41,45.41,0,0,1,123,75.65l-.08.32c-.43,1.6-1.24,4.58-3.33,4.63ZM118.84,56h-.11c-1.41.12-2,2.18-2.15,3.06a37.13,37.13,0,0,0,.21,15.6l.1.44c.32,1.48,1,4.6,2.62,4.51,1.35,0,2-2.64,2.39-3.89l.09-.33a45.76,45.76,0,0,0,1.51-8.73h0a17.39,17.39,0,0,0-.3-5.7,7.48,7.48,0,0,0-3-4.48A2.61,2.61,0,0,0,118.84,56Z" fill="#231f20"></path><path d="M123.74,85.17a7.07,7.07,0,0,1-5.31-.62,7.51,7.51,0,0,1-3.61-6.39,6.32,6.32,0,0,1,.4-2.8,3.29,3.29,0,0,1,2-1.91,5.32,5.32,0,0,1,3.33.45c1.6.58,1.71,1.44,2.73,2.61-.1-.11-.21-.43-.32-.53" fill="#fff"></path><path d="M121.84,85.94a7.49,7.49,0,0,1-3.66-1,8,8,0,0,1-3.86-6.8,6.77,6.77,0,0,1,.44-3,3.83,3.83,0,0,1,2.3-2.2,5.83,5.83,0,0,1,3.65.46A4.23,4.23,0,0,1,123,75.28c.06.07.11.15.17.23a.57.57,0,0,1,.16.11,1.51,1.51,0,0,1,.27.39.91.91,0,0,0,.07.14l0,0a.5.5,0,0,1,0,.69.51.51,0,0,1-.69,0l-.08-.09a9.42,9.42,0,0,1-.7-.93,3.29,3.29,0,0,0-1.78-1.48,4.94,4.94,0,0,0-3-.45,2.86,2.86,0,0,0-1.67,1.64,5.86,5.86,0,0,0-.36,2.57,7,7,0,0,0,3.35,6,6.52,6.52,0,0,0,4.93.58.5.5,0,1,1,.27,1A7.38,7.38,0,0,1,121.84,85.94Z" fill="#231f20"></path><path d="M85.34,188.13s18,15.74,18.23,17.15-2.13,15.74-5.48,17.86-15.56,5.13-17.51,3.18-5.3-6.89-3.36-7.42,5,2.29,6.37,1.94,5-6,5-6L74.75,198Z" fill="#fff"></path><path d="M83.33,227.45a4.57,4.57,0,0,1-3.1-.78c-1.39-1.39-4.53-5.49-4-7.36a1.24,1.24,0,0,1,.9-.9c1.25-.33,2.73.43,4,1.1a5.19,5.19,0,0,0,2.33.85c.73-.19,2.8-2.88,4.45-5.49L74.36,198.35a.5.5,0,0,1,0-.68L85,187.77a.49.49,0,0,1,.67,0c5.47,4.77,18.21,16,18.39,17.46s-2.06,16-5.71,18.34C96,225.05,88,227.45,83.33,227.45Zm-5.58-8.12a1.6,1.6,0,0,0-.39,0c-.14,0-.18.09-.2.18-.28,1.05,1.93,4.56,3.78,6.41,1.56,1.56,13.29-1,16.88-3.25,3-1.91,5.44-15.84,5.25-17.37-.44-1.16-10.95-10.64-17.71-16.54l-9.93,9.27,13.49,16.43a.48.48,0,0,1,0,.58c-.61,1-3.72,5.85-5.25,6.24-.83.2-1.85-.32-3-.93A7.79,7.79,0,0,0,77.75,219.33Z" fill="#231f20"></path><polygon points="87.66 188.8 93.97 194.06 83.23 209.48 74.75 201.92 87.66 188.8" fill="#231f20"></polygon><path d="M83.23,210a.48.48,0,0,1-.33-.13l-8.48-7.55a.53.53,0,0,1-.17-.36.51.51,0,0,1,.14-.36l12.92-13.13a.49.49,0,0,1,.67,0l6.31,5.26a.5.5,0,0,1,.09.67L83.64,209.77a.53.53,0,0,1-.35.21Zm-7.76-8.08,7.68,6.84,10.16-14.59-5.62-4.68Z" fill="#231f20"></path><path d="M95.43,108.22s-62.8,44.53-56.44,57S75.3,208.3,75.3,208.3l15.49-20.49s-21.85-19.45-19.73-23.69,29.85-29,29.85-29Z" fill="#68e1fd"></path><path d="M136.87,89.3a4.93,4.93,0,0,0,1.85,3,3,3,0,0,0,3.38.1c1.19-.87,1.34-2.58,1.2-4a4,4,0,0,1,.14-2.16c-1.78.07-3.59.06-5.36.21S136.48,87.53,136.87,89.3Z" fill="#231f20"></path><path d="M140,84s-5.59-.19-8.91,3.79l15.47.66S147.2,85.36,140,84Z" fill="#d1d3d4"></path><path d="M122.7,64.89a.48.48,0,0,1-.41-.23A4.3,4.3,0,0,0,120,63.1a13.77,13.77,0,0,0-3-.45.5.5,0,0,1,.07-1,14.55,14.55,0,0,1,3.23.5,5.16,5.16,0,0,1,2.81,2,.5.5,0,0,1-.14.69A.47.47,0,0,1,122.7,64.89Z" fill="#d1d3d4"></path><path d="M121.66,69.73a.5.5,0,0,1-.31-.1,5.67,5.67,0,0,0-4.5-1.11.5.5,0,0,1-.18-1,6.68,6.68,0,0,1,5.3,1.3.5.5,0,0,1,.08.7A.48.48,0,0,1,121.66,69.73Z" fill="#d1d3d4"></path><path d="M153.11,65a.48.48,0,0,1-.38-.17,1.92,1.92,0,0,0-1.42-.62.5.5,0,1,1,0-1,2.92,2.92,0,0,1,2.19,1,.51.51,0,0,1,0,.71A.54.54,0,0,1,153.11,65Z" fill="#d1d3d4"></path><path d="M127.79,165.73a.52.52,0,0,1-.36-.16c-.06-.06-5.5-5.82-10.65-11.86-2.82-3.29-5-6.06-6.57-8.22-1.77-2.47-2.72-4.18-2.89-5.25-.45-2.69,7.53-9.41,10.71-12-3.32-.48-12.49-2.16-13.66-6-.8-2.63,10.11-15,12.3-17.46a.5.5,0,1,1,.75.67c-6.28,7-12.51,15.11-12.09,16.5,1,3.33,10.44,5.09,14,5.48a.52.52,0,0,1,.43.36.5.5,0,0,1-.17.53c-4.53,3.54-11.59,9.86-11.27,11.75.1.62.65,2,2.71,4.82,1.53,2.15,3.72,4.89,6.52,8.16,5.13,6,10.56,11.77,10.61,11.82a.5.5,0,0,1,0,.71A.52.52,0,0,1,127.79,165.73Z" fill="#231f20"></path><path d="M138,163.16a.46.46,0,0,1-.29-.1.5.5,0,0,1-.12-.69c.14-.2,14-20,15.94-23.7a1.68,1.68,0,0,0,0-1.44c-1.18-3.1-8.76-6.86-9.39-7.1a.53.53,0,0,1-.34-.4c-.07-.4,0-.43,2.33-2.21,3.11-2.35,8.89-6.72,10.05-9.21s-5.79-7.55-10.41-10.23a.5.5,0,1,1,.51-.86c1.3.75,12.67,7.5,10.81,11.51-1.27,2.72-7,7-10.36,9.59-.6.45-1.18.89-1.57,1.2,2.07,1,8,4.19,9.28,7.28a2.71,2.71,0,0,1,0,2.33c-2,3.74-15.44,23-16,23.81A.5.5,0,0,1,138,163.16Z" fill="#231f20"></path><path d="M113.82,164.62h-.09c-.23-.05-5.49-1.12-7.87-3.6s-2.94-13.72-3-14.19a.5.5,0,0,1,.39-.51l7.21-1.6a.5.5,0,0,1,.52.19c1.67,2.35,5.07,6.46,7.69,9.53a.57.57,0,0,1,.11.22,7.39,7.39,0,0,1,.05,2.51c0,.15,0,.29,0,.42-.2,2.83-4.49,6.74-4.67,6.91A.51.51,0,0,1,113.82,164.62Zm-9.9-17.43c.19,3.42,1,11.34,2.66,13.12,1.89,2,6,3,7.1,3.26,1.27-1.19,4-4.14,4.15-6h0c0-.14,0-.3,0-.47a6.75,6.75,0,0,0,0-2.06c-2.53-3-5.74-6.85-7.47-9.23Z" fill="#231f20"></path><path d="M130.26,210.56h0a.51.51,0,0,1-.48-.53l2-39.93a.48.48,0,0,1,.52-.47.5.5,0,0,1,.48.52l-2,39.93A.5.5,0,0,1,130.26,210.56Z" fill="#231f20"></path><circle cx="123.94" cy="178.19" r="1.72" fill="#231f20"></circle><circle cx="123.94" cy="195.78" r="1.72" fill="#231f20"></circle><path d="M86.34,181.52a.5.5,0,0,1-.5-.48l-2.4-58.83a.5.5,0,0,1,.48-.52.5.5,0,0,1,.52.48L86.84,181a.51.51,0,0,1-.48.52Z" fill="#231f20"></path><path d="M116.91,123.79a.57.57,0,0,1-.25-.06.5.5,0,0,1-.23-.32l-.61-2.52a.49.49,0,0,1,.31-.58l7.21-2.67a.5.5,0,1,1,.35.93l-6.8,2.52.39,1.58,6.1-1.71a.5.5,0,0,1,.62.34.51.51,0,0,1-.35.62l-6.6,1.86Z" fill="#231f20"></path><polygon points="162.47 111.8 164.55 114.59 206 170.13 181.78 179.91 156.86 156.75 162.47 111.8" fill="#68e1fd"></polygon><path d="M161.16,190.59h0a.5.5,0,0,1-.45-.55c.05-.55,5.44-55.36,3.39-66.66a.5.5,0,0,1,.41-.58.51.51,0,0,1,.58.41c2.07,11.43-3.16,64.67-3.39,66.93A.49.49,0,0,1,161.16,190.59Z" fill="#231f20"></path><path d="M280,211.87s20.21,2.26,23.23,3.43,2.66,6.85,2.66,6.85H273.1Z" fill="#fff"></path><path d="M305.91,222.65H273.1a.51.51,0,0,1-.44-.26.49.49,0,0,1,0-.52l6.91-10.28a.5.5,0,0,1,.47-.22c.83.09,20.32,2.29,23.36,3.47,3.32,1.29,3,7.1,3,7.34A.5.5,0,0,1,305.91,222.65Zm-31.87-1h31.38c0-1.32-.18-5-2.35-5.88-2.73-1.06-20.28-3.09-22.81-3.37Z" fill="#231f20"></path><path d="M235.54,158s5.89,38.44,8.74,40.41,38.49,12.89,38.49,12.89l-5.86,14.26s-49.36-3.08-55.28-10.21,5.8-66.7,5.8-66.7Z" fill="#231f20"></path><path d="M276.91,226h0c-2-.12-49.65-3.17-55.63-10.38s5.22-64.67,5.7-67.11a.48.48,0,0,1,.36-.39.5.5,0,0,1,.5.16l8.11,9.34a.58.58,0,0,1,.12.25c2.26,14.78,6.58,38.73,8.52,40.08,2.2,1.53,26.05,9.05,38.35,12.82a.53.53,0,0,1,.31.26.51.51,0,0,1,0,.4l-5.86,14.27A.5.5,0,0,1,276.91,226ZM227.73,149.7c-4,20.81-10.2,59.88-5.71,65.29,5.45,6.56,50.1,9.7,54.57,10l5.51-13.43c-4.59-1.41-35.39-10.9-38.11-12.79-2.9-2-8.21-36-8.92-40.6Z" fill="#231f20"></path><path d="M188,134.59s-21.18,6.18-26.69,22.15,4.85,81.66,4.85,81.66l63-20.08s-1.44-32.4,4.13-45.7.72-22.72-3.34-26.66C226.47,142.66,204.1,130.6,188,134.59Z" fill="#231f20"></path><path d="M166.13,238.9a.48.48,0,0,1-.26-.07.52.52,0,0,1-.23-.35c-.42-2.69-10.31-66-4.83-81.9,2.9-8.4,10.1-14.06,15.63-17.33a55.75,55.75,0,0,1,11.39-5.13h0c16.2-4,38.93,8.15,42.38,11.5,7.8,7.55,6.73,19.37,3.45,27.2-5.46,13.05-4.11,45.16-4.1,45.48a.5.5,0,0,1-.34.5l-63,20.09Zm22-103.83c-.53.16-21,6.42-26.35,21.83-5.13,14.89,3.79,74.35,4.78,80.85l62-19.79c-.15-3.85-1.1-32.9,4.19-45.53,6.52-15.56-1.54-24.48-3.22-26.11C226.16,143.05,203.94,131.16,188.1,135.07Z" fill="#231f20"></path><polygon points="193.45 149.33 209.59 199.62 218.62 155.69 193.45 149.33" fill="#231f20"></polygon><path d="M209.59,200.12a.51.51,0,0,1-.48-.34L193,149.48a.49.49,0,0,1,.12-.49.48.48,0,0,1,.48-.14l25.17,6.36a.5.5,0,0,1,.37.58l-9,43.93a.48.48,0,0,1-.46.4ZM194.2,150l15.28,47.64L218,156.06Z" fill="#231f20"></path><path d="M203.48,157.33l4.17,8.06s-5.6,30.34-5.49,30.69,5.59,6.39,5.59,6.39l5.58-7.45-3.79-30.94,3-7.34Z" fill="#fff"></path><path d="M164.35,150.71s-10.58,14.71-13.63,39.57c-2,16.54-1.16,31.43,5.67,34.6s51.52,1.23,51.52,1.23-2.62-11.11,4.54-18.18c0,0-32.54-3.43-32.61-8s10.35-37,9.72-44.12S172.41,144.44,164.35,150.71Z" fill="#231f20"></path><path d="M181.15,227.2c-11,0-21.8-.41-25-1.87-8.45-3.92-7.36-23.68-6-35.11,3-24.7,13.62-39.65,13.73-39.8a.32.32,0,0,1,.1-.1c5.35-4.17,14-3.81,19.7-1.3,3.78,1.64,6.08,4.11,6.31,6.78.38,4.27-3,16.88-5.94,28-2,7.36-3.81,14.32-3.78,16.14,0,2.83,18.83,6.08,32.16,7.49a.51.51,0,0,1,.42.33.53.53,0,0,1-.12.52c-6.88,6.79-4.43,17.59-4.4,17.7a.52.52,0,0,1-.09.42.5.5,0,0,1-.37.19C207,226.65,194,227.2,181.15,227.2Zm-16.43-76.14c-.72,1-10.61,15.62-13.51,39.28-2.33,19-.37,31.42,5.39,34.09,6.23,2.88,45.44,1.41,50.71,1.2-.43-2.34-1.53-11,4.08-17.31-7.22-.79-32-3.85-32-8.36,0-2,1.75-8.65,3.81-16.4,2.79-10.5,6.27-23.57,5.91-27.68-.2-2.29-2.28-4.46-5.71-5.95C178,147.61,169.71,147.22,164.72,151.06Z" fill="#231f20"></path><path d="M233.89,222.84s17.07,3.29,23,.24,6.18-4.16,5.29-7-14.14-10.16-23.08-9.84-13.56,7.33-13,10.48S233.89,222.84,233.89,222.84Z" fill="#231f20"></path><path d="M248.73,224.88a91.41,91.41,0,0,1-14.93-1.55.19.19,0,0,1-.1,0c-.77-.31-7.58-3.17-8.14-6.5-.26-1.56.56-3.74,2.15-5.69a15.23,15.23,0,0,1,11.35-5.37c9.15-.33,22.61,7.11,23.58,10.19s.43,4.51-5.54,7.59C255.14,224.53,252,224.88,248.73,224.88ZM234,222.36c1,.19,17.07,3.14,22.61.28,5.8-3,5.83-3.92,5.05-6.41s-13.2-9.5-22-9.5h-.55a14.23,14.23,0,0,0-10.62,5c-1.39,1.71-2.15,3.63-1.94,4.9C226.93,219,232,221.54,234,222.36Z" fill="#231f20"></path><path d="M212.88,208.16s11.61.39,14.22-1.78,6.58-4.69,8.48-4.53,23.48,8.72,21.58,10.7-11.05-2.63-11.05-2.63,7.79,4.38,6.65,7.07-3,1.85-5.91-.06-10.12-5.86-10.12-5.86,10.34,8.65,9.76,11.53-5.9-.06-12.75-6.57c0,0,7.75,8.41,4.39,9.36s-9.21-4.47-9.21-4.47-4.62,4.33-9.29,4.45a82.24,82.24,0,0,1-10-.52A18.68,18.68,0,0,1,212.88,208.16Z" fill="#fff"></path><path d="M237.29,226c-3.1,0-7.16-3.34-8.37-4.41-1.19,1-5.17,4.17-9.28,4.27a80.58,80.58,0,0,1-10-.52.51.51,0,0,1-.43-.34,19.06,19.06,0,0,1,3.29-17.18.58.58,0,0,1,.43-.2c3.17.11,11.85,0,13.87-1.66s6.48-4.86,8.85-4.64c1.21.1,20.94,7.48,22.1,10.55a.93.93,0,0,1-.19,1c-1.14,1.2-4.13.52-6.83-.44,1.73,1.47,3.16,3.24,2.53,4.72a3,3,0,0,1-1.8,1.93c-1.37.42-3-.55-4.86-1.76-1.4-.92-3.83-2.33-5.95-3.53,3.06,2.89,6.78,6.87,6.38,8.88a1.74,1.74,0,0,1-1.19,1.42c-1.82.58-5.14-1.56-8.05-3.89,1.12,1.69,2,3.44,1.66,4.56a1.55,1.55,0,0,1-1.15,1.09A3.51,3.51,0,0,1,237.29,226Zm-8.37-5.62a.52.52,0,0,1,.35.14c1.57,1.46,6.18,5.07,8.72,4.36a.54.54,0,0,0,.44-.38c.41-1.48-2.89-5.78-5.07-8.14a.53.53,0,0,1,0-.72.52.52,0,0,1,.72,0c6.47,6.15,10.19,7.89,11.41,7.5.18-.06.39-.18.49-.65.37-1.88-5.68-7.77-9.59-11a.51.51,0,0,1-.09-.68.52.52,0,0,1,.67-.17c.07,0,7.25,4,10.16,5.89,1.83,1.2,3.14,1.89,4,1.63.45-.13.83-.57,1.15-1.34.66-1.56-3.36-4.69-6.43-6.42a.53.53,0,0,1-.2-.7.52.52,0,0,1,.69-.21c3.66,1.84,9.33,3.91,10.45,2.74-.1-.42-2.29-2.18-10-5.57a84.7,84.7,0,0,0-11.22-4.26c-1.6-.12-5.39,2.13-8.11,4.4-2.54,2.12-12.26,2-14.3,1.91a18.43,18.43,0,0,0-3.07,15.7,80.7,80.7,0,0,0,9.55.47c4.42-.11,8.91-4.27,9-4.31A.52.52,0,0,1,228.92,220.4Z" fill="#231f20"></path><path d="M212.45,208.43h-.12l-32.6-8a.49.49,0,0,1-.36-.63c.1-.34,10.1-33.91,1.95-50.35a.51.51,0,0,1,.22-.67.5.5,0,0,1,.67.23c3.51,7.06,4.25,17.81,2.21,31.95a148.54,148.54,0,0,1-3.95,18.62l32.1,7.86a.5.5,0,0,1-.12,1Z" fill="#fff"></path><path d="M228.91,203h0a.5.5,0,0,1-.46-.54s.17-1.77.39-4.84c.36-4.77.85-12.32,1.19-21.15a233.52,233.52,0,0,0-.26-24.57.5.5,0,1,1,1-.08,226.05,226.05,0,0,1,.26,24.69c-.33,8.85-.82,16.41-1.18,21.19-.23,3.07-.39,4.85-.39,4.85A.5.5,0,0,1,228.91,203Z" fill="#fff"></path><path d="M194.18,93.5a6.13,6.13,0,0,1,1.51-1.41,11.57,11.57,0,0,1,6.86-1.42,10.61,10.61,0,0,1,12.28-6.55,2.6,2.6,0,0,1,2.34-1.84,7.6,7.6,0,0,1,3.11.52c1.66.53,3.44,1.14,4.43,2.57a11.57,11.57,0,0,1,8.42,12c2.07-.22,3.74,2,3.68,4.08-.11,3.59-4.05,7.56-7.26,8.78s-2.48,2.59-2.36,5.52a16.77,16.77,0,0,1-1.76,8.82c-4.36,7.89-15.81,5.43-22.87,3.2-4.45-1.4-8.88-3.8-11.7-7.61-2.08-2.8-4.31-10.76-.82-13.2a7.07,7.07,0,0,1-1.21-5.67,4.14,4.14,0,0,1,4.49-3.07A4.89,4.89,0,0,1,194.18,93.5Z" fill="#fff"></path><path d="M214.55,130.46a41.25,41.25,0,0,1-12.14-2.22c-3.68-1.16-8.73-3.45-11.95-7.8-1.45-2-3.22-6.82-2.62-10.49a5.15,5.15,0,0,1,1.54-3.11,7.37,7.37,0,0,1-1-5.7,4.8,4.8,0,0,1,4.28-3.5,5.56,5.56,0,0,1,1.16-4.44,6.57,6.57,0,0,1,1.63-1.53,11.34,11.34,0,0,1,6.78-1.52,11.1,11.1,0,0,1,12.3-6.62,3.26,3.26,0,0,1,2.61-1.75,8.06,8.06,0,0,1,3.32.55c1.46.46,3.43,1.08,4.58,2.6a12.09,12.09,0,0,1,8.66,11.93,3.48,3.48,0,0,1,2.11,1,4.9,4.9,0,0,1,1.53,3.63c-.11,3.67-4.09,7.9-7.58,9.23-2.34.89-2.28,1.67-2.12,3.77,0,.39.06.81.08,1.26a17.23,17.23,0,0,1-1.82,9.08C223.78,128.57,220,130.46,214.55,130.46ZM192.67,98.64a3.83,3.83,0,0,0-3.36,2.77,6.58,6.58,0,0,0,1.15,5.27.49.49,0,0,1-.13.68,4,4,0,0,0-1.51,2.75c-.53,3.28,1.06,7.88,2.44,9.74,3.06,4.13,7.92,6.32,11.45,7.44,11.66,3.68,19.16,2.68,22.28-3a16.16,16.16,0,0,0,1.7-8.55c0-.44-.05-.85-.08-1.23-.16-2.1-.27-3.62,2.77-4.78s6.83-5.08,6.93-8.32a4,4,0,0,0-1.21-2.87,2.44,2.44,0,0,0-1.91-.7.48.48,0,0,1-.41-.14.49.49,0,0,1-.14-.41,11,11,0,0,0-8-11.46.53.53,0,0,1-.29-.2c-.87-1.24-2.4-1.81-4.17-2.37a7.45,7.45,0,0,0-2.91-.51,2.14,2.14,0,0,0-1.9,1.45.52.52,0,0,1-.23.33.49.49,0,0,1-.39,0A10.16,10.16,0,0,0,203,90.83a.51.51,0,0,1-.49.34c-2.89-.13-5,.3-6.56,1.34a5.48,5.48,0,0,0-1.39,1.29h0a4.36,4.36,0,0,0-.8,4.22.49.49,0,0,1-.08.51.48.48,0,0,1-.48.17A2.57,2.57,0,0,0,192.67,98.64Zm1.51-5.14h0Z" fill="#231f20"></path><path d="M217.61,140.69l1,15s-5.84,8.65-15.2,5c-9.16-3.61-9.94-11-10-11.31-.41-4.45.75-9.58,1.1-14,.38-4.87.91-9.8,1.13-14.67,3-1.07,4.66-5,4.24-8a6,6,0,0,0,4-6.74,4.76,4.76,0,0,0,3.21-5,9.86,9.86,0,0,0,5.06,4.5,5.54,5.54,0,0,0,6.22-1.74c-.55.8,2.43,3.46,3,3.83a9.42,9.42,0,0,0,4.9,1.62c1.84.15,1.81-.09,2.13,1.75.21,1.22.22,2.51.31,3.75.44,6.16,1.13,13.19-.68,19.2C225.79,141.14,217.61,140.69,217.61,140.69Z" fill="#fff"></path><path d="M208,162.06a12.91,12.91,0,0,1-4.76-.95c-9.43-3.72-10.25-11.4-10.28-11.72a44.9,44.9,0,0,1,.58-9.6c.21-1.58.41-3.07.52-4.51s.26-3.15.4-4.73c.28-3.27.58-6.64.73-9.93a.51.51,0,0,1,.33-.45c2.83-1,4.31-4.66,3.92-7.46a.48.48,0,0,1,.35-.54,5.53,5.53,0,0,0,3.64-6.17.49.49,0,0,1,.34-.58,4.28,4.28,0,0,0,2.86-4.48.49.49,0,0,1,.33-.54.5.5,0,0,1,.59.22,9.42,9.42,0,0,0,4.79,4.28,5.05,5.05,0,0,0,5.65-1.54h0a.49.49,0,0,1,.69-.13.5.5,0,0,1,.13.7h0c0,.51,2.06,2.59,2.83,3.13a8.86,8.86,0,0,0,4.64,1.53l.56,0c1.58.1,1.72.33,2,2.12a23.41,23.41,0,0,1,.26,2.76l.06,1,.1,1.33c.42,5.8.91,12.38-.8,18.06-2,6.48-8.39,7.19-10.33,7.25l1,14.47a.56.56,0,0,1-.09.31C219,156.05,214.83,162.06,208,162.06ZM196.17,121c-.16,3.21-.45,6.48-.73,9.64-.13,1.58-.27,3.15-.4,4.72s-.31,3-.52,4.57a43.73,43.73,0,0,0-.57,9.38c0,.3.78,7.39,9.65,10.88,8.34,3.29,13.71-3.52,14.51-4.63l-1-14.83a.5.5,0,0,1,.15-.38.51.51,0,0,1,.38-.15c.32,0,7.81.33,9.88-6.54,1.66-5.5,1.18-12,.76-17.7l-.1-1.33-.06-1.06a22.91,22.91,0,0,0-.24-2.64c-.22-1.23-.22-1.23-1.12-1.29l-.56,0a9.84,9.84,0,0,1-5.15-1.71,13.26,13.26,0,0,1-3-3.15,6.23,6.23,0,0,1-6.08,1.12,9.5,9.5,0,0,1-4.48-3.43,5.36,5.36,0,0,1-3.07,3.8,6.52,6.52,0,0,1-4,6.77C200.7,116,199.11,119.74,196.17,121Z" fill="#231f20"></path><path d="M199.92,128.09a7.86,7.86,0,0,1-5.93-.7,8.39,8.39,0,0,1-4-7.15,7,7,0,0,1,.45-3.12,3.76,3.76,0,0,1,2.22-2.15,6,6,0,0,1,3.73.51c1.79.66,1.92,1.62,3.06,2.92-.12-.12-.25-.48-.37-.59" fill="#fff"></path><path d="M197.8,128.88a8.38,8.38,0,0,1-4.06-1,8.86,8.86,0,0,1-4.29-7.56,7.6,7.6,0,0,1,.49-3.35,4.23,4.23,0,0,1,2.53-2.42,6.43,6.43,0,0,1,4.05.51,4.63,4.63,0,0,1,2.49,2l.2.27a.71.71,0,0,1,.18.12,1.54,1.54,0,0,1,.28.42l.09.17,0,0a.49.49,0,0,1,0,.69.51.51,0,0,1-.69,0l-.08-.09c-.32-.38-.57-.73-.79-1a3.68,3.68,0,0,0-2-1.68,5.54,5.54,0,0,0-3.41-.5,3.23,3.23,0,0,0-1.91,1.86,6.55,6.55,0,0,0-.41,2.91,7.86,7.86,0,0,0,3.78,6.73,7.38,7.38,0,0,0,5.56.66.48.48,0,0,1,.61.34.49.49,0,0,1-.34.62A8.27,8.27,0,0,1,197.8,128.88Z" fill="#231f20"></path><path d="M218.14,148.58a10.57,10.57,0,0,1-8.95-4.11c-3.69-4.71-2.88-8.12-2.88-8.12s4.77,4.73,11.3,4.34Z" fill="#231f20"></path><path d="M217.51,149.1a11.07,11.07,0,0,1-8.71-4.32c-3.8-4.85-3-8.39-3-8.54a.51.51,0,0,1,.84-.24c.05,0,4.69,4.56,10.92,4.19a.52.52,0,0,1,.53.47l.53,7.89a.49.49,0,0,1-.44.52A5.41,5.41,0,0,1,217.51,149.1Zm-10.77-11.71a11.67,11.67,0,0,0,2.84,6.77,10.29,10.29,0,0,0,8,4l-.46-6.9A16.74,16.74,0,0,1,206.74,137.39Z" fill="#231f20"></path><path d="M215.8,116.88s4.31,8.14,3,9.34-4.65,0-4.65,0" fill="#fff"></path><path d="M217,127.25a9.55,9.55,0,0,1-3-.59.5.5,0,1,1,.35-.93c.84.31,3.22.94,4.14.12.56-.5-.87-4.58-3.07-8.73a.5.5,0,1,1,.88-.47c1.35,2.55,4.34,8.63,2.86,9.95A3.18,3.18,0,0,1,217,127.25Z" fill="#231f20"></path><ellipse cx="209.71" cy="115.71" rx="1.78" ry="1.27" transform="translate(56.86 300.11) rotate(-79.23)" fill="#231f20"></ellipse><ellipse cx="221.63" cy="117.01" rx="1.27" ry="1.78" transform="translate(-11.6 25.28) rotate(-6.36)" fill="#231f20"></ellipse><path d="M221.63,132.23h-.11a101.87,101.87,0,0,0-11.85-1.76.49.49,0,0,1-.45-.54.5.5,0,0,1,.54-.46,102,102,0,0,1,12,1.79.5.5,0,0,1,.38.6A.49.49,0,0,1,221.63,132.23Z" fill="#231f20"></path><rect x="267.6" y="219.34" width="67.77" height="4.41" fill="#fff"></rect><path d="M335.37,224.25H267.6a.51.51,0,0,1-.5-.5v-4.41a.5.5,0,0,1,.5-.5h67.77a.5.5,0,0,1,.5.5v4.41A.5.5,0,0,1,335.37,224.25Zm-67.27-1h66.77v-3.41H268.1Z" fill="#231f20"></path><rect x="252.68" y="114.83" width="110.18" height="83.59" rx="3.46" fill="#fff"></rect><path d="M359.4,198.92H256.14a4,4,0,0,1-4-4V118.29a4,4,0,0,1,4-4H359.4a4,4,0,0,1,4,4V195A4,4,0,0,1,359.4,198.92ZM256.14,115.33a3,3,0,0,0-3,3V195a3,3,0,0,0,3,3H359.4a3,3,0,0,0,3-3V118.29a3,3,0,0,0-3-3Z" fill="#231f20"></path><rect x="295.32" y="171.61" width="24.91" height="52.14" fill="#fff"></rect><path d="M320.22,224.25h-24.9a.5.5,0,0,1-.5-.5V171.61a.5.5,0,0,1,.5-.5h24.9a.5.5,0,0,1,.5.5v52.14A.5.5,0,0,1,320.22,224.25Zm-24.4-1h23.9V172.11h-23.9Z" fill="#231f20"></path><path d="M153.79,223.28a.5.5,0,0,1-.45-.27c-4.61-8.88-4.86-19.47-4.27-26.8a76.08,76.08,0,0,1,2.42-13.88.5.5,0,1,1,1,.28c-.07.23-6.84,23.33,1.78,39.94a.5.5,0,0,1-.21.67A.53.53,0,0,1,153.79,223.28Z" fill="#fff"></path><rect x="291.28" y="171.61" width="4.04" height="26.07" fill="#231f20"></rect><path d="M295.32,198.18h-4a.5.5,0,0,1-.5-.5V171.61a.5.5,0,0,1,.5-.5h4a.5.5,0,0,1,.49.5v26.07A.49.49,0,0,1,295.32,198.18Zm-3.54-1h3V172.11h-3Z" fill="#231f20"></path><path d="M358.58,122.11H257.28a.5.5,0,0,1-.5-.5.5.5,0,0,1,.5-.5h101.3a.5.5,0,0,1,.5.5A.5.5,0,0,1,358.58,122.11Z" fill="#d1d3d4"></path><rect x="135.32" y="223.75" width="230.18" height="10.64" fill="#fff"></rect><path d="M365.5,234.89H135.32a.5.5,0,0,1-.5-.5V223.75a.5.5,0,0,1,.5-.5H365.5a.5.5,0,0,1,.5.5v10.64A.5.5,0,0,1,365.5,234.89Zm-229.68-1H365v-9.64H135.82Z" fill="#231f20"></path><rect x="138.9" y="234.39" width="223.02" height="22.98" fill="#fff"></rect><path d="M361.92,257.87h-223a.5.5,0,0,1-.5-.5v-23a.5.5,0,0,1,.5-.5h223a.5.5,0,0,1,.5.5v23A.5.5,0,0,1,361.92,257.87Zm-222.52-1h222v-22h-222Z" fill="#231f20"></path><rect x="103.76" y="223.75" width="50.27" height="10.64" transform="translate(257.79 458.14) rotate(180)" fill="#fff"></rect><path d="M154,234.89H103.76a.5.5,0,0,1-.5-.5V223.75a.5.5,0,0,1,.5-.5H154a.5.5,0,0,1,.5.5v10.64A.5.5,0,0,1,154,234.89Zm-49.77-1h49.27v-9.64H104.26Z" fill="#231f20"></path><rect x="104.54" y="234.39" width="48.7" height="22.98" transform="translate(257.79 491.76) rotate(180)" fill="#fff"></rect><path d="M153.25,257.87H104.54a.5.5,0,0,1-.5-.5v-23a.5.5,0,0,1,.5-.5h48.71a.5.5,0,0,1,.5.5v23A.5.5,0,0,1,153.25,257.87Zm-48.21-1h47.71v-22H105Z" fill="#231f20"></path></g></svg>