<svg xmlns="http://www.w3.org/2000/svg" viewBox="0 0 400 300" width="406" height="306" class="illustration styles_illustrationTablet__1DWOa"><g id="_355_marketing_flatline" data-name="#355_marketing_flatline"><polygon points="195.97 267.13 287.08 185.11 278.96 178.66 318.82 169.57 310.05 203.29 302.88 197.72 226.95 267.13 195.97 267.13" fill="#fff"></polygon><path d="M227,267.63H196a.5.5,0,0,1-.47-.32.51.51,0,0,1,.13-.55l90.68-81.63-7.66-6.08a.48.48,0,0,1-.17-.5.51.51,0,0,1,.37-.38l39.86-9.09a.49.49,0,0,1,.47.14.5.5,0,0,1,.13.47l-8.78,33.73a.48.48,0,0,1-.32.34.49.49,0,0,1-.47-.07l-6.84-5.31L227.29,267.5A.47.47,0,0,1,227,267.63Zm-29.68-1h29.49l75.78-69.27a.49.49,0,0,1,.64,0l6.57,5.1,8.38-32.19-38,8.68,7.3,5.8a.45.45,0,0,1,.19.37.48.48,0,0,1-.16.39Z" fill="#d1d3d4"></path><polygon points="200.13 209.1 206.2 212.85 152.85 256.94 185.43 258.08 222.7 224.44 229.29 228.27 237.55 199 200.13 209.1" fill="#fff"></polygon><path d="M185.43,258.58h0l-32.57-1.14a.51.51,0,0,1-.46-.34.48.48,0,0,1,.16-.54l52.8-43.65-5.47-3.38a.51.51,0,0,1-.24-.5.49.49,0,0,1,.37-.41l37.42-10.11a.54.54,0,0,1,.49.13.52.52,0,0,1,.13.49l-8.26,29.28a.48.48,0,0,1-.3.32.49.49,0,0,1-.44,0l-6.28-3.64-37,33.39A.51.51,0,0,1,185.43,258.58Zm-31.24-2.09,31.05,1.08,37.12-33.5A.51.51,0,0,1,223,224l6,3.51,7.84-27.81-35.46,9.57,5.09,3.14a.53.53,0,0,1,.24.39.51.51,0,0,1-.18.42Z" fill="#d1d3d4"></path><polygon points="265.29 267.13 286 248.44 291.32 250.97 297.82 231.17 270.62 237.99 275.98 241.31 244.74 267.13 265.29 267.13" fill="#fff"></polygon><path d="M265.29,267.63H244.74a.5.5,0,0,1-.32-.88l30.7-25.38-4.77-3a.49.49,0,0,1-.23-.5.52.52,0,0,1,.38-.41l27.2-6.81a.5.5,0,0,1,.6.64l-6.51,19.8a.5.5,0,0,1-.27.3.49.49,0,0,1-.41,0l-5-2.38L265.62,267.5A.46.46,0,0,1,265.29,267.63Zm-19.16-1h19l20.57-18.56a.5.5,0,0,1,.55-.08l4.8,2.28,6.05-18.39-25.19,6.31,4.36,2.7a.49.49,0,0,1,.23.39.49.49,0,0,1-.18.42Z" fill="#d1d3d4"></path><path d="M280.85,112.25l-13.52,21,13.86,7.33,18.3-28s-9.86-14.23-11.84-15S280.85,112.25,280.85,112.25Z" fill="#fff"></path><path d="M281.19,141.11a.53.53,0,0,1-.24-.06l-13.85-7.33a.47.47,0,0,1-.25-.32.45.45,0,0,1,.06-.39l13.49-21c.77-2.43,4.42-13.72,6.64-14.81a.92.92,0,0,1,.78-.06c2,.73,10.42,12.74,12.08,15.14a.48.48,0,0,1,0,.55l-18.3,28A.51.51,0,0,1,281.19,141.11Zm-13.15-8L281,140l17.87-27.36c-3.8-5.47-10.1-14-11.41-14.49-1.06.18-4,7.56-6.15,14.3a.61.61,0,0,1-.05.12Zm12.81-20.84h0Z" fill="#231f20"></path><path d="M269.81,92s.59,5.29,3.33,7,10.32.61,10.94,1.27,13.67,19.08,15.16,20,5.95-2.14,8.81-6.54c0,0-13.06-16.81-13.76-18.37s.33-9.21-.44-12.37Z" fill="#fff"></path><path d="M299.87,121a1.7,1.7,0,0,1-.89-.22c-1.05-.64-6.34-7.85-12.13-15.82-1.59-2.18-3-4.07-3.13-4.26a18.5,18.5,0,0,0-2.69-.07c-2.66,0-6.33.06-8.16-1.11-2.9-1.87-3.53-7.19-3.56-7.41a.52.52,0,0,1,.32-.53l24-9a.49.49,0,0,1,.41,0,.47.47,0,0,1,.25.32,32.43,32.43,0,0,1,.26,7.2c-.06,2.18-.13,4.44.16,5.09.5,1.1,8.46,11.53,13.69,18.27a.48.48,0,0,1,0,.57C305.93,118,302.06,121,299.87,121ZM282,99.61c1.47,0,2.14.06,2.45.38s1.18,1.56,3.21,4.36c3.53,4.86,10.87,15,11.84,15.55s5.08-1.86,7.93-6.08c-2.08-2.69-12.92-16.69-13.59-18.19-.37-.82-.33-2.64-.25-5.53a39.65,39.65,0,0,0-.12-6.38l-23.11,8.64c.2,1.21,1,5,3.06,6.29,1.57,1,5.06,1,7.6,1Z" fill="#231f20"></path><path d="M305.44,116.31a.49.49,0,0,1-.41-.21L290.61,95.74a.51.51,0,0,1,.12-.7.5.5,0,0,1,.7.12l14.42,20.37a.5.5,0,0,1-.12.69A.45.45,0,0,1,305.44,116.31Z" fill="#d1d3d4"></path><path d="M291.59,87.11a6.54,6.54,0,0,0-.48,3.77c.4,2,3.84,5.58,3.84,5.58l4.79-4.91-4.37-5.94Z" fill="#231f20"></path><path d="M295,97a.55.55,0,0,1-.36-.15c-.14-.15-3.55-3.73-4-5.83a7,7,0,0,1,.52-4.09.55.55,0,0,1,.27-.25l3.78-1.5a.52.52,0,0,1,.59.17l4.36,6a.5.5,0,0,1-.05.64l-4.78,4.91A.48.48,0,0,1,295,97Zm-3-9.46a6,6,0,0,0-.37,3.28c.27,1.35,2.27,3.76,3.36,5l4.12-4.23-3.88-5.3Z" fill="#231f20"></path><path d="M304.55,109.27s3.08-4.31.47-5.52c0,0,.61-3.57-3.09-3.18,0,0,.3-3.85-2.75-4s-7.44,5.82-7.61,7.63,2.36,1.5,4,.26c0,0-2.28,2.2-1.55,3.2,1.07,1.47,3.11.13,4.73-.81,0,0-2.76,2.53-.27,3.65,1.92.86,5.06-2.56,5.06-2.56Z" fill="#fff"></path><path d="M299.13,111.11a2.08,2.08,0,0,1-.88-.19,2,2,0,0,1-1.32-1.5,2.19,2.19,0,0,1,.15-1.13c-1.28.59-2.61.85-3.5-.37a1.93,1.93,0,0,1,.2-2.09,2.73,2.73,0,0,1-2-.12,1.53,1.53,0,0,1-.74-1.58c.19-2,4.81-8.3,8.14-8.09a3.12,3.12,0,0,1,2.22,1,4.94,4.94,0,0,1,1,3h0a3,3,0,0,1,2.29.86,3.52,3.52,0,0,1,.78,2.57,2.12,2.12,0,0,1,.93,1.28c.5,1.9-1.31,4.52-1.52,4.81a.49.49,0,0,1-.8,0l-.69-.89C302.63,109.49,300.78,111.11,299.13,111.11Zm-.41-4.79a.48.48,0,0,1,.4.21.49.49,0,0,1-.06.66c-.33.31-1.26,1.34-1.14,2.07,0,.12.08.45.74.75,1.29.58,3.73-1.62,4.48-2.44a.57.57,0,0,1,.39-.16.51.51,0,0,1,.38.2l.61.79c.55-.92,1.25-2.42,1-3.4a1.16,1.16,0,0,0-.7-.8.5.5,0,0,1-.28-.54,2.81,2.81,0,0,0-.49-2.08,2.38,2.38,0,0,0-2.05-.51.52.52,0,0,1-.4-.14.5.5,0,0,1-.16-.4,4.37,4.37,0,0,0-.76-2.8,2.11,2.11,0,0,0-1.52-.69c-2.77-.16-6.94,5.61-7.09,7.18,0,.41.11.54.24.62a3.4,3.4,0,0,0,2.94-.8.5.5,0,0,1,.65.75c-.93.9-1.77,2.17-1.5,2.54.68.94,2,.28,3.74-.74l.34-.2A.45.45,0,0,1,298.72,106.32Z" fill="#231f20"></path><path d="M296.78,90.87s-.7-3.28-3.16-1.39-5.93,5.79-3.3,7.17S296.73,93.51,296.78,90.87Z" fill="#fff"></path><path d="M291.38,97.41a2.74,2.74,0,0,1-1.29-.32,2.06,2.06,0,0,1-1.2-1.69c-.19-2.17,2.81-5.08,4.43-6.32a2.39,2.39,0,0,1,2.31-.58,3.18,3.18,0,0,1,1.63,2.26.5.5,0,0,1,0,.12c0,1.94-1.85,4.7-3.87,5.9A4,4,0,0,1,291.38,97.41Zm3.64-8a1.89,1.89,0,0,0-1.09.48c-2.05,1.58-4.17,4-4.05,5.44a1.11,1.11,0,0,0,.67.9,2.49,2.49,0,0,0,2.35-.29c1.72-1,3.31-3.39,3.37-5-.09-.39-.42-1.27-1-1.48A.86.86,0,0,0,295,89.39Z" fill="#231f20"></path><path d="M280.36,113.77s1-9.37,1.33-11c.56-2.75,2.52-6.71,5.07-6.6s8.08,1.2,6.45,3.26c-1.49,1.89-6.3.78-6.3.78s2.18,4.29.64,7.38" fill="#fff"></path><path d="M280.36,114.27h-.06a.5.5,0,0,1-.44-.55c0-.38,1-9.41,1.34-11,.57-2.78,2.59-7.14,5.58-7,1.28,0,6.26.63,7.1,2.46a1.47,1.47,0,0,1-.28,1.61c-1.25,1.59-4.28,1.38-5.86,1.13.58,1.48,1.47,4.51.26,6.94a.49.49,0,0,1-.67.22.5.5,0,0,1-.23-.67c1.41-2.81-.62-6.88-.64-6.93a.53.53,0,0,1,.05-.53.52.52,0,0,1,.51-.18c1.25.29,4.74.74,5.8-.6.26-.33.18-.5.15-.57-.43-.93-3.7-1.78-6.23-1.88-2.14-.07-4,3.54-4.57,6.2-.32,1.59-1.31,10.86-1.32,10.95A.49.49,0,0,1,280.36,114.27Z" fill="#231f20"></path><path d="M325.39,91.56s-18.74-8.16-28.12-6.11a54.64,54.64,0,0,0-7,2.12c-5.37,2-10.63,4.48-14.44,5.57C268.29,95.29,262,94.23,260,86.27c-1.67-6.82,1.25-8.85,7.59-12.39,3.13-1.74,9.38-4.28,15.1-7.48a38.12,38.12,0,0,0,9-6.57c6-6.39,8.73-18.29,8.73-18.29Z" fill="#fff"></path><path d="M269.72,94.61a10.9,10.9,0,0,1-5.54-1.33c-2.28-1.33-3.84-3.65-4.64-6.89-1.77-7.21,1.47-9.4,7.84-12.94,1.33-.75,3.21-1.62,5.38-2.64,3-1.4,6.43-3,9.72-4.84a37.16,37.16,0,0,0,8.93-6.48c5.83-6.22,8.57-18,8.6-18.07a.5.5,0,0,1,.43-.38.48.48,0,0,1,.5.27l24.89,50a.5.5,0,0,1-.08.57.51.51,0,0,1-.56.12c-.19-.08-18.7-8.08-27.82-6.08a53.79,53.79,0,0,0-6.9,2.1c-2.2.81-4.36,1.7-6.46,2.57-3,1.21-5.75,2.36-8,3A23.1,23.1,0,0,1,269.72,94.61ZM300.65,43c-.9,3.31-3.61,12-8.51,17.21A38,38,0,0,1,283,66.84c-3.33,1.86-6.76,3.46-9.79,4.88-2.15,1-4,1.87-5.32,2.6-6.25,3.48-8.95,5.3-7.35,11.83.73,3,2.13,5.08,4.17,6.26,2.59,1.51,6.31,1.59,11,.25a81,81,0,0,0,7.91-3c2.1-.87,4.28-1.76,6.5-2.58a53.77,53.77,0,0,1,7-2.14c8.13-1.78,22.8,3.82,27.18,5.62Z" fill="#231f20"></path><path d="M291.59,87.11c-5.37,2-12,4.74-15.73,6-8.57,2.93-13.11,2.06-15.56-5.76-2.52-8,1-10,7.32-13.5,3.13-1.74,9.38-4.28,15.1-7.48,0,0-1.26,4.85,1.6,12.16A17.32,17.32,0,0,0,291.59,87.11Z" fill="#231f20"></path><path d="M268.45,95.18a8.24,8.24,0,0,1-3.81-.82c-2.17-1.1-3.7-3.27-4.82-6.83-2.63-8.41,1.18-10.53,7.48-14,1.41-.79,3.29-1.66,5.46-2.68,3-1.4,6.43-3,9.72-4.84a.5.5,0,0,1,.73.56s-1.18,4.79,1.58,11.85a17,17,0,0,0,7,8.28.51.51,0,0,1,.27.48.5.5,0,0,1-.33.44c-2.47.91-5.19,2-7.81,3-3,1.2-5.9,2.33-7.93,3A24.2,24.2,0,0,1,268.45,95.18Zm13.6-27.84c-3,1.65-6.12,3.09-8.87,4.38-2.15,1-4,1.87-5.32,2.6-6.33,3.53-9.47,5.28-7.08,12.91,1,3.28,2.4,5.27,4.31,6.24,2.31,1.16,5.58.92,10.61-.81,2-.68,4.86-1.81,7.88-3,2.3-.9,4.66-1.83,6.87-2.66a18.1,18.1,0,0,1-6.6-8.26A24,24,0,0,1,282.05,67.34Z" fill="#231f20"></path><path d="M331.29,91.65c-5.6,2.5-14.11-3.83-21-14.76a72.6,72.6,0,0,1-8-17.86c-3.62-12.48-2.65-23.11,3-25.62,7-3.11,18.42,7.42,25.59,23.49S338.26,88.54,331.29,91.65Z" fill="#68e1fd"></path><path d="M308,32.87c7,0,16.63,9.85,22.95,24,7.17,16.09,7.34,31.64.37,34.75a6.33,6.33,0,0,1-2.64.54c-5.42,0-12.47-6-18.32-15.3a72.6,72.6,0,0,1-8-17.86c-3.62-12.48-2.65-23.11,3-25.62a6.37,6.37,0,0,1,2.64-.54m0-1h0a7.36,7.36,0,0,0-3,.63c-6,2.67-7.42,13.44-3.54,26.81a71.93,71.93,0,0,0,3.4,9.25,70.16,70.16,0,0,0,4.7,8.86c6.09,9.73,13.43,15.77,19.16,15.77a7.4,7.4,0,0,0,3.05-.63c3.75-1.67,5.78-6.44,5.71-13.43-.07-6.69-2.05-14.73-5.57-22.63C325.37,42,315.56,31.87,308,31.87Z" fill="#231f20"></path><path d="M321.17,69.71l-10.84,7.18a72.6,72.6,0,0,1-8-17.86l13.39-3.26Z" fill="#fff"></path><ellipse cx="318.43" cy="62.75" rx="3.48" ry="7.47" transform="translate(-0.81 121.26) rotate(-21.53)" fill="#231f20"></ellipse><path d="M320.55,70.32c-2,0-4.38-2.46-5.82-6.11-1.64-4.16-1.3-8.06.77-8.88s5,1.8,6.63,6h0c1.64,4.16,1.3,8.06-.77,8.88A2.24,2.24,0,0,1,320.55,70.32ZM316.3,56.18a1.22,1.22,0,0,0-.43.08c-1.31.52-1.72,3.76-.21,7.58s4,5.92,5.33,5.4,1.72-3.76.21-7.58C319.84,58.22,317.68,56.18,316.3,56.18Z" fill="#231f20"></path><path d="M298.72,107.32a.5.5,0,0,1-.33-.87,14.7,14.7,0,0,1,3.58-2.32.51.51,0,0,1,.66.28.5.5,0,0,1-.28.65,14,14,0,0,0-3.3,2.14A.5.5,0,0,1,298.72,107.32Z" fill="#231f20"></path><path d="M295.54,104.93a.53.53,0,0,1-.24-.06.5.5,0,0,1-.19-.68,7.68,7.68,0,0,1,4-3.18.5.5,0,1,1,.32.94,6.84,6.84,0,0,0-3.49,2.73A.5.5,0,0,1,295.54,104.93Z" fill="#231f20"></path><path d="M303.51,108.41a.5.5,0,0,1-.3-.9l1.16-.86a.5.5,0,0,1,.7.1.51.51,0,0,1-.1.7l-1.16.86A.47.47,0,0,1,303.51,108.41Z" fill="#231f20"></path><path d="M267.65,94.1a.5.5,0,0,1-.41-.22c-3.87-5.54-5.52-11.27-4.63-16.14a1.15,1.15,0,0,0,0-.14.51.51,0,0,1,.39-.49.49.49,0,0,1,.6.37,1,1,0,0,1,0,.44c-.83,4.61.75,10.07,4.47,15.39a.51.51,0,0,1-.12.7A.52.52,0,0,1,267.65,94.1Z" fill="#fff"></path><path d="M270.76,74.62a.52.52,0,0,1-.46-.29.5.5,0,0,1,.25-.66l8.1-3.75a.49.49,0,0,1,.66.24.5.5,0,0,1-.24.67L271,74.57A.41.41,0,0,1,270.76,74.62Z" fill="#fff"></path><path d="M271.17,76.29a.5.5,0,0,1-.46-.29.51.51,0,0,1,.25-.66l8.1-3.75a.51.51,0,0,1,.66.25.49.49,0,0,1-.24.66l-8.1,3.75A.52.52,0,0,1,271.17,76.29Z" fill="#fff"></path><path d="M271.64,78.22a.5.5,0,0,1-.21-1l8.1-3.75a.5.5,0,0,1,.42.91l-8.1,3.75A.52.52,0,0,1,271.64,78.22Z" fill="#fff"></path><path d="M139.15,134.58,115.47,198s39.65,13.32,65.62,11.13c0,0,7.06-10.1,12.61-15.8s23.2-11.05,27-38.49c0,0,27,32.45,39.8,25.67S293,129.14,293,129.14l-17.84-12.79-18.2,25.53s-48.39-46.24-60.64-54.06c-4.55-2.9-22.61.32-43.93,6" fill="#68e1fd"></path><path d="M188.81,106.73s0,31.6-2.34,44.22-8.55,32.75-8.55,32.75,29-40,36.06-68.14Z" fill="#231f20"></path><path d="M177.92,184.14a.49.49,0,0,1-.2,0,.45.45,0,0,1-.22-.53c.06-.2,6.24-20.23,8.54-32.69s2.33-43.82,2.33-44.14a.45.45,0,0,1,.19-.36.43.43,0,0,1,.4-.05l25.17,8.82a.46.46,0,0,1,.28.53c-7,27.92-35.84,67.88-36.13,68.28A.45.45,0,0,1,177.92,184.14Zm11.33-76.79c0,4.5-.22,32.14-2.35,43.68-1.81,9.83-6,24.32-7.77,30.19,6.09-8.73,28.15-41.42,34.32-65.38Z" fill="#231f20"></path><path d="M208.38,267.13l-27.29-58L115.47,198s-13,14.57-16.11,26.72c-2.17,8.44-10.51,30-7.09,42.4Z" fill="#231f20"></path><path d="M208.38,267.63H92.27a.51.51,0,0,1-.49-.36c-2.79-10.16,2.07-26,5.28-36.49.75-2.44,1.4-4.55,1.82-6.17C102,212.48,115,197.83,115.1,197.68a.49.49,0,0,1,.46-.16l65.62,11.13a.49.49,0,0,1,.36.28l27.29,58a.51.51,0,0,1,0,.48A.48.48,0,0,1,208.38,267.63Zm-115.73-1H207.59l-26.84-57-65.08-11c-1.58,1.82-13,15.19-15.83,26.31-.42,1.64-1.07,3.76-1.82,6.21C94.88,241.32,90.15,256.74,92.65,266.63Z" fill="#231f20"></path><path d="M186.5,44C174.58,55.17,174.12,75.52,161,85.25L170.64,92c10.13,7.1,20.52,14.33,32.44,17.68s25.86,2.11,35-6.25c-2.82-2.89-2.94-7.42-2.54-11.43,1.32-13.38,6.43-27.09,2.26-39.86-.88-2.69-2.73-7.11-5-9-3-2.43-5.2-.44-8.53-.46a3.23,3.23,0,0,1-1.81-.91C213.2,34.68,194.81,36.22,186.5,44Z" fill="#fff"></path><path d="M215.47,111.86A47.22,47.22,0,0,1,203,110.14c-12.12-3.4-22.52-10.7-32.57-17.75l-9.66-6.77a.44.44,0,0,1-.19-.37.47.47,0,0,1,.18-.37c6.84-5.06,10.28-13.26,13.61-21.18,3-7.22,6.17-14.69,11.87-20,8.65-8.11,27.43-9.24,36.53-2.21l.1.09a2.66,2.66,0,0,0,1.43.73,11.67,11.67,0,0,0,2.9-.39c1.92-.42,3.74-.81,5.92,1,2.72,2.2,4.63,7.57,5.15,9.17,3,9.18,1.25,18.95-.45,28.39-.69,3.83-1.4,7.79-1.79,11.65-.33,3.35-.44,8.14,2.42,11.07a.46.46,0,0,1,0,.66C231.92,109.7,223.48,111.86,215.47,111.86ZM161.76,85.23l9.14,6.41c10,7,20.33,14.26,32.3,17.62,10.19,2.86,24.47,2.79,34.22-5.84-2.79-3.21-2.68-8-2.35-11.45.39-3.89,1.11-7.87,1.8-11.72,1.68-9.33,3.41-19,.48-27.95-1-3.16-2.85-7.12-4.86-8.74-1.84-1.5-3.3-1.18-5.15-.78a14.18,14.18,0,0,1-3.09.41,3.35,3.35,0,0,1-2-.92l-.1-.08c-8.8-6.81-27-5.7-35.34,2.14h0c-5.56,5.21-8.66,12.59-11.66,19.72C171.87,71.9,168.46,80,161.76,85.23ZM186.5,44h0Z" fill="#231f20"></path><path d="M216,98.5l-2,17.06s-2.91,9.31-12.92,5.11a21.6,21.6,0,0,1-12.25-13.94l4.86-29.36c.21-1.25,2.54-4.76,3.68-15.61,12.63,1.37,23.73-6.9,23.73-6.9s3.52,7,5.14,9.34a25.89,25.89,0,0,1,3.26,5.62c1.34,3.5.75,7.59.22,11.2a71.45,71.45,0,0,1-2.89,12.68C224.15,101.53,216,98.5,216,98.5Z" fill="#fff"></path><path d="M205.89,122.22a13.2,13.2,0,0,1-5-1.12,22.26,22.26,0,0,1-12.51-14.27.32.32,0,0,1,0-.17l4.86-29.37a8.27,8.27,0,0,1,.47-1.38C194.45,74,196,70,196.9,61.71a.44.44,0,0,1,.17-.31.44.44,0,0,1,.33-.1c12.29,1.33,23.3-6.73,23.41-6.81a.44.44,0,0,1,.37-.08.48.48,0,0,1,.31.24c0,.08,3.52,7,5.1,9.28a26,26,0,0,1,3.31,5.73c1.4,3.65.76,8,.25,11.43a71.43,71.43,0,0,1-2.9,12.76,8,8,0,0,1-4.07,4.91,10.05,10.05,0,0,1-6.79.34l-2,16.51a10.11,10.11,0,0,1-5,5.84A8.39,8.39,0,0,1,205.89,122.22Zm-16.61-15.51a21.34,21.34,0,0,0,12,13.54c3,1.26,5.64,1.39,7.82.38a9.43,9.43,0,0,0,4.48-5.21l2-17a.47.47,0,0,1,.22-.34.44.44,0,0,1,.39,0s3.61,1.31,6.63-.14a7.08,7.08,0,0,0,3.59-4.38A71.21,71.21,0,0,0,229.25,81c.52-3.54,1.11-7.55-.2-11a25.93,25.93,0,0,0-3.2-5.52,101,101,0,0,1-4.94-8.92c-2.18,1.48-12.1,7.72-23.15,6.72-.9,8.09-2.46,12.06-3.22,14a8,8,0,0,0-.42,1.2C194.1,77.55,189.58,104.9,189.28,106.71Z" fill="#231f20"></path><path d="M214.86,106.86s-7-.56-10.83-5.72-2.63-9.73-2.63-9.73,6.85,6,14.6,7.09Z" fill="#231f20"></path><path d="M214.86,107.3h0c-.3,0-7.2-.64-11.15-5.9s-2.76-9.92-2.71-10.11a.45.45,0,0,1,.3-.31.46.46,0,0,1,.42.09c.06.06,6.85,5.88,14.38,7a.45.45,0,0,1,.37.5l-1.14,8.36A.44.44,0,0,1,214.86,107.3ZM201.71,92.23a12.28,12.28,0,0,0,2.67,8.64c3.18,4.23,8.58,5.28,10.1,5.5l1-7.5C209.13,97.78,203.52,93.67,201.71,92.23Z" fill="#231f20"></path><path d="M216.25,68.38s4.46,8.87,3,10.13-5-.13-5-.13" fill="#fff"></path><path d="M217.4,79.49a10.35,10.35,0,0,1-3.35-.7.45.45,0,0,1,.33-.83c.91.36,3.52,1.11,4.56.22.73-.62-1-5.47-3.08-9.6a.44.44,0,1,1,.79-.4c1.08,2.16,4.49,9.29,2.87,10.67A3.2,3.2,0,0,1,217.4,79.49Z" fill="#231f20"></path><ellipse cx="224.4" cy="73.24" rx="1.78" ry="0.95" transform="translate(132.4 290.62) rotate(-85.14)" fill="#231f20"></ellipse><ellipse cx="209.11" cy="69.98" rx="1.78" ry="0.95" transform="translate(121.65 272.4) rotate(-85.14)" fill="#231f20"></ellipse><path d="M200.46,69.34c-.77-3.14-4.44-4.72-7.41-4.5a4.89,4.89,0,0,0-4.43,3.2,9.2,9.2,0,0,0-.48,3.54A18.52,18.52,0,0,0,189.5,78a6.5,6.5,0,0,0,1.8,2.73,3.34,3.34,0,0,0,3.82.23" fill="#fff"></path><path d="M193.28,81.93a3.57,3.57,0,0,1-2.27-.81,7.06,7.06,0,0,1-1.94-2.92,19.15,19.15,0,0,1-1.39-6.61,9.57,9.57,0,0,1,.51-3.71,5.34,5.34,0,0,1,4.83-3.5c3.23-.23,7.06,1.52,7.88,4.85a.46.46,0,0,1-.33.55.46.46,0,0,1-.56-.33c-.7-2.87-4.09-4.36-6.92-4.16A4.48,4.48,0,0,0,189,68.2a8.81,8.81,0,0,0-.44,3.37,17.87,17.87,0,0,0,1.32,6.29,6.27,6.27,0,0,0,1.67,2.55,3,3,0,0,0,3.32.18.45.45,0,0,1,.61.19.46.46,0,0,1-.19.62A4.53,4.53,0,0,1,193.28,81.93Z" fill="#231f20"></path><path d="M219,82.22l-8-1.75S208.69,93,212.29,93.8,218.71,85.93,219,82.22Z" fill="#fff"></path><path d="M212.76,94.3a2.1,2.1,0,0,1-.56-.07c-3.91-.86-1.93-12.51-1.69-13.84a.47.47,0,0,1,.19-.29A.45.45,0,0,1,211,80l8,1.75a.43.43,0,0,1,.35.46c-.2,2.87-2,9.29-4.81,11.37A3.06,3.06,0,0,1,212.76,94.3ZM211.3,81c-.79,4.71-1.16,11.87,1.09,12.37a2,2,0,0,0,1.68-.46c2.26-1.68,4.09-7.16,4.43-10.34Z" fill="#231f20"></path><path d="M208.56,181.58a.48.48,0,0,1-.35-.16.47.47,0,0,1,0-.65c.14-.11,13.34-11.75,14.81-44.33a.45.45,0,0,1,.48-.43.46.46,0,0,1,.44.47c-1.49,33-15,44.87-15.14,45A.46.46,0,0,1,208.56,181.58Z" fill="#231f20"></path><path d="M162.39,214.47a.46.46,0,0,1-.4-.69c4.21-7.42,15.41-30.06,15.52-30.29a.46.46,0,0,1,.82.41c-.11.23-11.32,22.89-15.55,30.34A.47.47,0,0,1,162.39,214.47Z" fill="#231f20"></path><rect x="76.75" y="157.09" width="61.94" height="79.07" transform="translate(296.81 76.17) rotate(86.22)" fill="#fff"></rect><path d="M70.31,230.65a.51.51,0,0,1-.51-.48l-4.09-61.81a.51.51,0,0,1,.13-.37.54.54,0,0,1,.35-.18l78.9-5.21a.52.52,0,0,1,.38.13.51.51,0,0,1,.17.35l4.09,61.81a.52.52,0,0,1-.48.55l-78.9,5.21Zm-3.53-61.84,4,60.78,77.87-5.15-4-60.78Z" fill="#231f20"></path><path d="M129.39,189.82H159.8a0,0,0,0,1,0,0v1.91a6.82,6.82,0,0,1-6.82,6.82H136.21a6.82,6.82,0,0,1-6.82-6.82v-1.91A0,0,0,0,1,129.39,189.82Z" transform="translate(328.82 37.1) rotate(86.22)" fill="#fff"></path><path d="M147.59,209.73a7.34,7.34,0,0,1-7.31-6.85h0l-1.11-16.74a7.34,7.34,0,0,1,6.84-7.8l1.9-.12a.49.49,0,0,1,.38.12.53.53,0,0,1,.17.36l2,30.34a.53.53,0,0,1-.48.55l-1.91.12Zm-6.28-6.92a6.31,6.31,0,0,0,6.7,5.87l1.39-.09-1.93-29.31-1.39.09a6.31,6.31,0,0,0-5.88,6.71Z" fill="#231f20"></path><rect x="92.74" y="165.51" width="6.75" height="26.81" transform="translate(268.3 71.2) rotate(86.22)" fill="#fff"></rect><path d="M83,183.66a.52.52,0,0,1-.33-.12.51.51,0,0,1-.17-.34L82,176.46a.5.5,0,0,1,.47-.54l26.74-1.76a.44.44,0,0,1,.36.12.44.44,0,0,1,.17.34l.45,6.74a.49.49,0,0,1-.47.53L83,183.66Zm.09-6.77.38,5.74,25.75-1.7-.38-5.74Z" fill="#d1d3d4"></path><rect x="97.95" y="173.08" width="6.75" height="35.62" transform="translate(285.11 77.19) rotate(86.22)" fill="#fff"></rect><path d="M83.77,195.93a.47.47,0,0,1-.32-.12.44.44,0,0,1-.17-.34l-.45-6.74a.5.5,0,0,1,.47-.54l35.54-2.35a.5.5,0,0,1,.53.47l.45,6.74a.48.48,0,0,1-.12.36.51.51,0,0,1-.35.17l-35.54,2.35Zm.09-6.77.38,5.74,34.55-2.28-.38-5.74Z" fill="#d1d3d4"></path><rect x="94.19" y="190.22" width="6.75" height="26.47" transform="translate(294.15 92.68) rotate(86.22)" fill="#fff"></rect><path d="M84.59,208.2a.48.48,0,0,1-.33-.12.51.51,0,0,1-.17-.35L83.64,201a.5.5,0,0,1,.47-.54l26.41-1.74a.47.47,0,0,1,.36.12.44.44,0,0,1,.17.34l.45,6.74a.49.49,0,0,1-.47.53L84.62,208.2Zm.08-6.77.38,5.74,25.42-1.68-.38-5.74Z" fill="#d1d3d4"></path><rect x="103.96" y="192.92" width="6.75" height="44.43" transform="translate(314.93 93.84) rotate(86.22)" fill="#fff"></rect><path d="M85.4,220.47a.5.5,0,0,1-.33-.12.51.51,0,0,1-.17-.35l-.45-6.74a.5.5,0,0,1,.47-.53l44.33-2.93a.51.51,0,0,1,.36.12.53.53,0,0,1,.17.35l.44,6.74a.5.5,0,0,1-.46.53l-44.33,2.93Zm.08-6.77.38,5.74,43.33-2.87-.38-5.74Z" fill="#d1d3d4"></path><circle cx="128.36" cy="177.93" r="6.19" fill="#fff"></circle><path d="M128.35,184.63a6.7,6.7,0,1,1,6.68-7.26h0a6.7,6.7,0,0,1-6.11,7.23A5.44,5.44,0,0,1,128.35,184.63Zm0-12.39a4,4,0,0,0-.49,0,5.7,5.7,0,1,0,6.15,5.2h0a5.69,5.69,0,0,0-5.66-5.22Z" fill="#d1d3d4"></path><polyline points="123.34 181.57 128.36 177.93 129.45 171.84" fill="#fff"></polyline><path d="M123.34,182.07a.49.49,0,0,1-.4-.21.51.51,0,0,1,.11-.7l4.85-3.51,1.06-5.9a.49.49,0,0,1,.58-.4.5.5,0,0,1,.4.58L128.85,178a.48.48,0,0,1-.2.32l-5,3.63A.47.47,0,0,1,123.34,182.07Z" fill="#d1d3d4"></path><line x1="128.36" y1="177.93" x2="133.9" y2="180.68" fill="#fff"></line><path d="M133.9,181.18a.44.44,0,0,1-.22-.05l-5.54-2.75a.5.5,0,1,1,.44-.9l5.54,2.75a.5.5,0,0,1-.22,1Z" fill="#d1d3d4"></path><line x1="82.29" y1="172.91" x2="85.63" y2="223.48" fill="#fff"></line><path d="M85.63,224a.5.5,0,0,1-.5-.46l-3.34-50.58a.5.5,0,1,1,1-.06l3.34,50.57a.5.5,0,0,1-.47.53Z" fill="#d1d3d4"></path><path d="M78.86,224.08a.5.5,0,0,1-.5-.47l-1-15.64,1-.06,1,15.64a.5.5,0,0,1-.46.53Z" fill="#d1d3d4"></path><path d="M97.68,188.79s.83,14.86,1.77,16,13.24,11.44,11.36,13.82-7.19-3-7.19-3,5.75,13.55,2.73,14.65S94,232.57,91.21,230,78.67,202,78,192.09" fill="#fff"></path><path d="M97.67,232.06c-2.78,0-5.44-.43-6.81-1.72-3-2.78-12.69-28.45-13.32-38.22a.5.5,0,0,1,.47-.53.51.51,0,0,1,.53.47c.64,10.09,10.61,35.3,13,37.55s11.54,1.36,14.63.24a.65.65,0,0,0,.36-.4c1-2.27-2.11-10.59-3.38-13.6a.49.49,0,0,1,.81-.54c1,1,3.84,3.51,5.59,3.43a1.06,1.06,0,0,0,.86-.43c.8-1-2.4-4.86-9.52-11.44-1.07-1-1.63-1.51-1.84-1.75-1-1.18-1.68-12.77-1.88-16.3a.5.5,0,1,1,1,0c.4,7.13,1.12,15,1.66,15.71.17.21.89.88,1.74,1.66,7,6.5,11.11,10.91,9.62,12.79a2,2,0,0,1-1.59.81c-1.53.09-3.39-1.17-4.72-2.25,1.33,3.42,3.6,10,2.57,12.36a1.59,1.59,0,0,1-.94.93A30.54,30.54,0,0,1,97.67,232.06Z" fill="#231f20"></path><path d="M152.34,93.8c-36.08,9.56-81.51,26.09-86.72,31.69-8.28,8.93,11.44,73.29,11.44,73.29l23.91-6.2-5.45-45.2,43.63-12.8" fill="#68e1fd"></path><path d="M111.15,143.25a.46.46,0,0,1-.13-.9l49.24-15.18a.46.46,0,0,1,.27.88l-49.24,15.18Z" fill="#231f20"></path></g></svg>