<svg xmlns="http://www.w3.org/2000/svg" viewBox="0 0 400 300" width="406" height="306" class="illustration styles_illustrationTablet__1DWOa"><g id="_508_team_work_outline" data-name="#508_team_work_outline"><path d="M202.45,175.17S186,204,174.43,203.58c-3.86-.13-8-1.79-11.74-3.93v26.73h-55V190.91c0-10.33,7-18.7,15.54-18.7h23.94a13.67,13.67,0,0,1,8.63,3.15l.05,0c.19.19.86.82,1.84,1.74,3.93,3.64,13,11.64,16.76,12,4.91.49,18-21.17,18-21.17Z" fill="#68e1fd"></path><path d="M162.69,227.38h-55a1,1,0,0,1-1-1V190.91c0-10.86,7.42-19.7,16.54-19.7h23.94a14.67,14.67,0,0,1,9.26,3.37h0l.13.11c.19.19.85.82,1.81,1.72,7.7,7.12,13.75,11.51,16.17,11.75,1.8.17,8.25-6.13,17-20.69a1,1,0,0,1,.65-.47,1,1,0,0,1,.79.17l10,7.19a1,1,0,0,1,.29,1.3c-.69,1.2-16.93,29.38-28.93,28.92a25.73,25.73,0,0,1-10.7-3.25v25A1,1,0,0,1,162.69,227.38Zm-54-2h53V199.65a1,1,0,0,1,1.49-.87c4.26,2.41,8,3.69,11.28,3.8,4.39.13,10.45-4.57,17.52-13.66a142.45,142.45,0,0,0,9.15-13.47l-8.41-6c-3.17,5.16-13.47,21.18-18.39,20.73-3.76-.37-11.5-6.88-17.34-12.27-.93-.88-1.59-1.5-1.82-1.73h0a12.64,12.64,0,0,0-8-2.93H123.21c-8,0-14.54,7.94-14.54,17.7Z" fill="#093f68"></path><path d="M157.67,177.14c-1-.92-1.65-1.55-1.84-1.74A15.92,15.92,0,0,1,157.67,177.14Z" fill="#68e1fd"></path><path d="M157.67,178.14a1,1,0,0,1-.68-.27c-1-.93-1.67-1.57-1.86-1.76a1,1,0,0,1,1.33-1.49,17.11,17.11,0,0,1,2,1.85,1,1,0,0,1,0,1.39A1,1,0,0,1,157.67,178.14Z" fill="#093f68"></path><path d="M133,170.34h11.67a0,0,0,0,1,0,0v7.33a5.14,5.14,0,0,1-5.14,5.14h-1.4a5.14,5.14,0,0,1-5.14-5.14v-7.33A0,0,0,0,1,133,170.34Z" transform="translate(-15.42 13.29) rotate(-5.2)" fill="#ffc9b0"></path><path d="M138.2,183.87a6.14,6.14,0,0,1-6.11-5.58l-.66-7.31a1,1,0,0,1,.9-1.09l11.63-1a1,1,0,0,1,.73.22,1,1,0,0,1,.36.68l.66,7.31a6.15,6.15,0,0,1-5.56,6.67l-1.39.12A5.25,5.25,0,0,1,138.2,183.87Zm-4.69-12.07.58,6.3a4.1,4.1,0,0,0,1.47,2.81,4.05,4.05,0,0,0,3,.94l1.39-.12h0a4.14,4.14,0,0,0,2.81-1.48,4.09,4.09,0,0,0,.94-3l-.57-6.31Z" fill="#093f68"></path><path d="M121.9,95.07a23.07,23.07,0,0,1,6.71,1.56,18.23,18.23,0,0,0-6-5.59c8.69-.72,17.86.2,25.22,4.87,12.57,8,10.4,20.72,9.64,33.38-.39,6.49-1.22,12.93-1.83,19.4l-54.3,6.13s-3-13-4.29-24.07a72.75,72.75,0,0,1-.13-7.38c0-3.11-.16-2.77-3.31-3.83-.49-.17-1-.38-1.22-.87-.56-1.45,2.39-1.63,3-3a13.59,13.59,0,0,1-5.58-.76,22.24,22.24,0,0,1,17.06-11.28l-4.51-2.33a1.6,1.6,0,0,1-.88-.81c-.2-.71.6-1.26,1.28-1.54C108.78,96.37,115.49,94.54,121.9,95.07Z" fill="#725858"></path><path d="M101.31,155.82a1,1,0,0,1-1-.78c0-.13-3.07-13.21-4.31-24.18a43.1,43.1,0,0,1-.15-5.17c0-.77,0-1.54,0-2.31a6.64,6.64,0,0,0-.18-2,5.09,5.09,0,0,0-1.5-.61l-.95-.31A2.76,2.76,0,0,1,91.42,119a2,2,0,0,1,1.07-2.5,14.77,14.77,0,0,1-3-.72,1,1,0,0,1-.54-1.42,23.12,23.12,0,0,1,14.82-11.29l-1.86-1a2.45,2.45,0,0,1-1.38-1.42c-.31-1.07.4-2.12,1.85-2.73,7.32-3.07,13.92-4.39,19.62-3.9h0a25,25,0,0,1,3.71.58,17.24,17.24,0,0,0-3.61-2.75,1,1,0,0,1-.47-1.09,1,1,0,0,1,.89-.78c10.51-.87,19.2.82,25.84,5,11.95,7.59,11.12,19.44,10.32,30.91-.08,1.13-.15,2.25-.22,3.37-.26,4.28-.71,8.59-1.15,12.77q-.36,3.33-.68,6.66a1,1,0,0,1-.88.9l-54.31,6.13Zm-8-37.47a2.19,2.19,0,0,0,.55.24l.93.31c2.7.87,3,1.33,3.06,4.45,0,.8,0,1.58,0,2.36a40.09,40.09,0,0,0,.14,4.92c1,9.24,3.38,20,4.07,23.09l52.61-5.94c.19-2,.4-3.91.61-5.87.44-4.16.89-8.45,1.14-12.68.07-1.13.15-2.26.23-3.39.79-11.38,1.55-22.13-9.4-29.08-5.65-3.59-13-5.24-21.72-4.9a19.15,19.15,0,0,1,3.88,4.21,1,1,0,0,1-.05,1.19,1,1,0,0,1-1.15.3,22,22,0,0,0-6.42-1.49h0c-5.37-.45-11.66.81-18.68,3.75a2.42,2.42,0,0,0-.62.38l.3.16,4.51,2.34a1,1,0,0,1,.53,1.07,1,1,0,0,1-.89.81,21.09,21.09,0,0,0-15.65,9.7,12.81,12.81,0,0,0,4,.34,1,1,0,0,1,.89.42,1,1,0,0,1,.1,1,4.37,4.37,0,0,1-2.14,1.86A6,6,0,0,0,93.35,118.35Z" fill="#093f68"></path><ellipse cx="160.75" cy="145.21" rx="7.59" ry="8.48" transform="translate(-15.28 18.95) rotate(-6.44)" fill="#ffc9b0"></ellipse><path d="M160.92,154.68a8.23,8.23,0,0,1-5.5-2.16,10,10,0,0,1-3.21-6.35c-.59-5.2,2.76-9.86,7.47-10.39s9,3.26,9.61,8.46h0a10,10,0,0,1-1.72,6.91,8.17,8.17,0,0,1-5.76,3.48A6.73,6.73,0,0,1,160.92,154.68Zm-.35-17a4.87,4.87,0,0,0-.66,0c-3.62.41-6.18,4.08-5.72,8.18a8,8,0,0,0,2.56,5.07,6,6,0,0,0,9.19-1,8,8,0,0,0,1.36-5.52h0C166.87,140.62,163.92,137.73,160.57,137.73Z" fill="#093f68"></path><path d="M137.46,175.67c-16.56,1.87-33.69-16.9-35.53-33.19l4.11,1.05L104.6,132s20.13-7.82,16.31-17.16c0,0,6.9,6.54,15.65,5.54,16.07-1.86,21.88-6.83,21.88-6.83L161.77,143C163.61,159.33,154,173.8,137.46,175.67Z" fill="#ffc9b0"></path><path d="M135.18,176.79c-16.35,0-32.45-18.35-34.24-34.2a1,1,0,0,1,.34-.87,1,1,0,0,1,.9-.21l2.69.68-1.26-10.06a1,1,0,0,1,.63-1c.13-.05,12.87-5.07,15.65-11.52a5.4,5.4,0,0,0,.1-4.33,1,1,0,0,1,1.61-1.1c.07.06,6.69,6.19,14.84,5.26,15.49-1.79,21.3-6.54,21.35-6.59a1,1,0,0,1,1-.16,1,1,0,0,1,.62.81l3.33,29.47c2,17.68-8.6,31.87-25.18,33.74h0A21.44,21.44,0,0,1,135.18,176.79Zm2.28-1.12h0Zm-34.33-31.85c2.59,15.4,18.64,32.61,34.22,30.85h0c15.44-1.74,25.29-15,23.42-31.52l-3.14-27.82c-2.62,1.6-9,4.67-21,6-6.21.72-11.47-2.12-14.27-4.08a7.87,7.87,0,0,1-.68,3c-2.72,6.34-13.15,11.08-16,12.3L107,143.4a1,1,0,0,1-1.24,1.1Z" fill="#093f68"></path><ellipse cx="126.26" cy="143.3" rx="2.75" ry="2.74" transform="translate(-15.28 15.07) rotate(-6.44)" fill="#093f68"></ellipse><circle cx="152.55" cy="140.33" r="2.75" fill="#093f68"></circle><path d="M139.77,149.42c-.48,0-.79,0-.83,0a1,1,0,0,1-.93-1.06,1,1,0,0,1,1.06-.94A13.11,13.11,0,0,0,143,147c0-.89-1.36-3.57-3-6a1,1,0,1,1,1.66-1.12c1.17,1.74,3.84,6,3.23,7.89a1.55,1.55,0,0,1-1,1A12.68,12.68,0,0,1,139.77,149.42Z" fill="#093f68"></path><path d="M108.1,143.89s-7.77-4.18-10.92,2.69S99,164,110.56,159.43" fill="#ffc9b0"></path><path d="M105.27,161.54a9.53,9.53,0,0,1-7.13-3,11.45,11.45,0,0,1-1.87-12.4,7.29,7.29,0,0,1,4.34-4.14c3.73-1.25,7.79.9,8,1a1,1,0,0,1-1,1.76s-3.49-1.83-6.4-.85A5.44,5.44,0,0,0,98.08,147a9.54,9.54,0,0,0,1.52,10.2c2.42,2.57,6.19,3,10.59,1.31a1,1,0,1,1,.73,1.86A15.4,15.4,0,0,1,105.27,161.54Z" fill="#093f68"></path><path d="M118.74,136a2,2,0,0,1-.18-4l12.22-1.11a2,2,0,0,1,.36,4L118.92,136Z" fill="#093f68"></path><path d="M142.86,133.83a2,2,0,0,1-.18-4l12.22-1.11a2,2,0,0,1,.36,4L143,133.82Z" fill="#093f68"></path><path d="M137.16,160.2a10.81,10.81,0,0,1-4.62-1,9.83,9.83,0,0,1-5-5.41,1,1,0,0,1,1.9-.62,7.94,7.94,0,0,0,4,4.23c2.65,1.22,6.07,1,10.18-.67a1,1,0,0,1,1.3.55,1,1,0,0,1-.55,1.31A19.27,19.27,0,0,1,137.16,160.2Z" fill="#093f68"></path><path d="M281.18,93.72c-6.7-1.77-14.62-.17-20.54,2.81-9.07,4.58-14.67,12.77-17,22.48l-6.27,26c-3.09,12.76-8.47,26.83,2.39,37.5,5.62,5.52,13.34,8.37,21,10.15A75,75,0,0,0,289.91,194c7.81-1.3,19.45-4.33,21.82-13.15C313,176,310.77,171,310,166c-1.67-10.51,3.31-20.87,4.13-31.47.86-11-5-35.67-20.17-34a5.58,5.58,0,0,1-2.3,0,4.71,4.71,0,0,1-1.91-1.62A16.68,16.68,0,0,0,281.18,93.72Z" fill="#725858"></path><path d="M279.31,195.85a83.25,83.25,0,0,1-18.79-2.27C250.79,191.32,244,188,239,183.17c-10-9.87-6.71-22.74-3.77-34.1.38-1.46.76-2.91,1.11-4.35l6.27-25.95c2.57-10.64,8.64-18.63,17.54-23.13,5.35-2.7,13.73-4.87,21.24-2.89a17.6,17.6,0,0,1,9.06,5.52l.15.18A3.55,3.55,0,0,0,292,99.59a3.37,3.37,0,0,0,1.41,0l.47-.06a13.59,13.59,0,0,1,11.33,4.11c7.5,7.26,10.6,22.63,9.95,30.94a84.1,84.1,0,0,1-2.22,12.37c-1.5,6.49-2.92,12.62-1.93,18.87.23,1.43.59,2.9.94,4.32.88,3.59,1.79,7.3.79,11-1.88,7-9.49,11.69-22.61,13.87A65.33,65.33,0,0,1,279.31,195.85ZM275.21,94a32.59,32.59,0,0,0-14.12,3.45c-8.36,4.22-14.07,11.76-16.5,21.81l-6.27,26c-.35,1.45-.73,2.91-1.11,4.38-2.94,11.37-6,23.12,3.23,32.18,4.66,4.57,11.18,7.71,20.54,9.88A73.61,73.61,0,0,0,289.75,193c12.28-2,19.35-6.22,21-12.42.86-3.2.05-6.5-.8-10-.36-1.47-.73-3-1-4.48-1.05-6.64.48-13.25,1.95-19.64a83.53,83.53,0,0,0,2.18-12.07c.61-7.92-2.29-22.52-9.35-29.35a11.65,11.65,0,0,0-9.72-3.56l-.42,0a4.87,4.87,0,0,1-2.3-.06,5,5,0,0,1-2.21-1.74l-.15-.18a15.67,15.67,0,0,0-8.05-4.89h0A22.44,22.44,0,0,0,275.21,94Z" fill="#093f68"></path><path d="M275.81,174.55h-22a11.58,11.58,0,0,0-3.53.55,12.57,12.57,0,0,0-3,1.41s-17.4,9.09-20.32,7.78-19.11-11.65-19.11-11.65l-9.22,7.83s13.92,18.47,22.79,23.76c2.58,1.53,18.12-5.21,18.12-5.21v27.36h50.49V192.26C290.07,182.48,283.68,174.55,275.81,174.55Z" fill="#68e1fd"></path><path d="M290.08,227.38h-50.5a1,1,0,0,1-1-1V200.54c-4.8,2-15.12,6-17.63,4.55-8.94-5.33-22.51-23.26-23.08-24a1,1,0,0,1,.15-1.36l9.22-7.83a1,1,0,0,1,1.18-.08c.17.1,16.16,10.32,19,11.58,1.52.69,11.29-3.5,19.45-7.76a13.11,13.11,0,0,1,3.15-1.47,12.37,12.37,0,0,1,3.83-.6h22c8.42,0,15.27,8.39,15.27,18.71v34.12A1,1,0,0,1,290.08,227.38Zm-49.5-2h48.5V192.26c0-9.21-5.95-16.71-13.27-16.71h-22a10.57,10.57,0,0,0-3.22.5,11.73,11.73,0,0,0-2.76,1.3c-4.26,2.23-18.15,9.25-21.27,7.86C223.93,184,211,175.82,208,173.88L200,180.62c2.7,3.5,14.34,18.22,21.93,22.75,1.3.75,9.95-2.12,17.21-5.26a1,1,0,0,1,.95.08,1,1,0,0,1,.45.83Z" fill="#093f68"></path><path d="M271,175.08v-4.53H260v4.53a4.71,4.71,0,0,0,4.72,4.71h1.62A4.71,4.71,0,0,0,271,175.08Z" fill="#ffc9b0"></path><path d="M266.31,180.79h-1.62a5.72,5.72,0,0,1-5.72-5.71v-4.53a1,1,0,0,1,1-1h11a1,1,0,0,1,1,1v4.53A5.71,5.71,0,0,1,266.31,180.79ZM261,171.55v3.53a3.72,3.72,0,0,0,3.72,3.71h1.62a3.71,3.71,0,0,0,3.71-3.71v-3.53Z" fill="#093f68"></path><path d="M237.43,141c-.83,4.24,2,10.66,6.94,11.62s9.54-1.71,10.36-5.94-2.48-8.44-7.37-9.39S238.25,136.75,237.43,141Z" fill="#ffc9b0"></path><path d="M246.35,153.79a11.55,11.55,0,0,1-2.17-.21,9.42,9.42,0,0,1-6.31-5.08,12.07,12.07,0,0,1-1.43-7.71,5.64,5.64,0,0,1,4.14-4.57,15,15,0,0,1,7,.07c5.43,1.05,9.09,5.79,8.16,10.56C254.91,151,250.93,153.79,246.35,153.79Zm-2.84-15.94a8.23,8.23,0,0,0-2.36.29,3.59,3.59,0,0,0-2.74,3h0a10,10,0,0,0,1.22,6.36c.71,1.3,2.29,3.56,4.93,4.07,4.35.85,8.47-1.46,9.19-5.14s-2.24-7.37-6.58-8.22A19.29,19.29,0,0,0,243.51,137.85ZM237.43,141h0Z" fill="#093f68"></path><path d="M265.15,173.22h0a27.29,27.29,0,0,0,32-21.61l2.42-12.42c1.26-6.45-6.21-20.4-12.63-21.66,0,0-2.24,5.9-13.38,9.26-7.8,2.35-17.82.65-25.65-7.44l-4.25,21.83A27.29,27.29,0,0,0,265.15,173.22Z" fill="#ffc9b0"></path><path d="M270.41,174.73a28.83,28.83,0,0,1-5.45-.53A28.33,28.33,0,0,1,242.65,141l4.26-21.82a1,1,0,0,1,1.7-.5c8.07,8.34,18,9.17,24.64,7.17,10.45-3.15,12.71-8.6,12.73-8.66a1,1,0,0,1,1.13-.62c3.23.63,6.92,4.13,9.88,9.37,2.22,3.93,4.31,9.53,3.55,13.46l-2.43,12.42a28.31,28.31,0,0,1-27.7,22.93Zm-21.89-53.37-3.9,20a26.25,26.25,0,1,0,51.53,10L298.57,139c.55-2.8-.76-7.55-3.32-12.1-2.4-4.24-5.33-7.29-7.81-8.19-1.07,1.84-4.48,6.28-13.61,9C267,129.8,257,129.11,248.52,121.36Z" fill="#093f68"></path><path d="M287.38,137.9h-.14l-12-.84a2,2,0,1,1,.28-4l12,.84a2,2,0,0,1-.14,4Z" fill="#093f68"></path><path d="M261.41,134.19a2,2,0,0,1-.49-.06l-11.67-2.95a2,2,0,1,1,1-3.88l11.67,3a2,2,0,0,1-.49,3.94Z" fill="#093f68"></path><path d="M290.75,161.13c4.9,1,12.77-3.39,13.2-7.68.72-7.18-7.22-7.43-10.65-5.39" fill="#ffc9b0"></path><path d="M292.24,162.27a8.47,8.47,0,0,1-1.68-.16,1,1,0,0,1,.38-2c2.52.49,6.23-.62,9-2.7,1.77-1.31,2.85-2.81,3-4.1.22-2.11-.39-3.63-1.79-4.53a7.83,7.83,0,0,0-7.35.1,1,1,0,1,1-1-1.72c2.42-1.45,6.62-1.86,9.44-.06,1.44.91,3.08,2.77,2.71,6.41-.19,1.88-1.53,3.83-3.78,5.51A16.12,16.12,0,0,1,292.24,162.27Z" fill="#093f68"></path><path d="M299.26,145.21s6.07-13.08.18-26.5-26.7-18.38-35.91-14.71c-14.38,5.73-15.64,15.35-15.64,15.35s2-26.95,32.88-20.83C308.6,104,311.09,128.33,299.26,145.21Z" fill="#ffbc0e"></path><path d="M299.26,146.21a1,1,0,0,1-.91-1.42c.06-.12,5.81-12.85.17-25.67S273,101.3,263.9,104.93c-13.68,5.44-15,14.46-15,14.55a1,1,0,0,1-2-.2c0-.46,1-11.3,9.6-17.88,6-4.59,14.28-5.89,24.48-3.86,15.31,3,21.55,11.19,24.08,17.5,3.73,9.27,1.82,21-5,30.75A1,1,0,0,1,299.26,146.21Zm-28.35-44.42c10.64,0,24.65,5.64,29.44,16.52a33.52,33.52,0,0,1,2.25,18.61c2.85-7.21,3.14-14.82.6-21.14-3.37-8.39-11.19-14-22.62-16.28-9.61-1.91-17.3-.74-22.87,3.48a21.53,21.53,0,0,0-6.24,7.76,30.94,30.94,0,0,1,11.69-7.67A21.26,21.26,0,0,1,270.91,101.79Z" fill="#093f68"></path><path d="M268.1,153.78h0a13.07,13.07,0,0,1-4.51-.9,1.54,1.54,0,0,1-.87-1.08c-.42-1.81,2.35-5.55,3.56-7.07a1,1,0,0,1,1.57,1.25,18.39,18.39,0,0,0-3.17,5.2,12.21,12.21,0,0,0,3.45.6,1,1,0,0,1,1,1A1,1,0,0,1,268.1,153.78Zm-3.45-2.42h0Z" fill="#093f68"></path><ellipse cx="275.23" cy="145.22" rx="2.4" ry="2.41" transform="translate(80.02 387.57) rotate(-78.97)" fill="#093f68"></ellipse><ellipse cx="252.93" cy="140.87" rx="2.4" ry="2.41" transform="translate(66.25 362.16) rotate(-78.97)" fill="#093f68"></ellipse><path d="M255.59,150.11a8.89,8.89,0,0,1-1.69-.17,8.72,8.72,0,1,1,10.23-6.89h0a8.73,8.73,0,0,1-8.54,7.06Zm0-15.44a6.7,6.7,0,1,0,1.3.12A7.15,7.15,0,0,0,255.56,134.67Zm7.59,8.19h0Z" fill="#093f68"></path><path d="M278.11,154.5a8.72,8.72,0,1,1,8.55-7.05A8.66,8.66,0,0,1,278.11,154.5Zm0-15.44a6.72,6.72,0,1,0,6.6,8h0a6.71,6.71,0,0,0-5.31-7.88A6.27,6.27,0,0,0,278.1,139.06Z" fill="#093f68"></path><path d="M270.53,145.3a.62.62,0,0,1-.19,0L263,143.84a1,1,0,0,1,.38-2l7.38,1.44a1,1,0,0,1-.19,2Z" fill="#093f68"></path><path d="M248.33,139.76a1,1,0,0,1-.77-.36l-3.5-4.16a1,1,0,1,1,1.53-1.28l3.5,4.15a1,1,0,0,1-.76,1.65Z" fill="#093f68"></path><path d="M285.68,148.26a1,1,0,0,1-1-.87,1,1,0,0,1,.86-1.12l11.92-1.6a1,1,0,1,1,.27,2l-11.92,1.6Z" fill="#093f68"></path><path d="M264,162.58h-.19a13.65,13.65,0,0,1-8.94-4,1,1,0,0,1,1.46-1.37,11.78,11.78,0,0,0,7.53,3.35c2.87.08,5.65-1.27,8.3-3.91a1,1,0,0,1,1.41,1.42C270.54,161.07,267.32,162.58,264,162.58Z" fill="#093f68"></path><path d="M181.41,172.74h36a0,0,0,0,1,0,0v4A12.39,12.39,0,0,1,205,189.16H193.8a12.39,12.39,0,0,1-12.39-12.39v-4A0,0,0,0,1,181.41,172.74Z" fill="#093f68"></path><path d="M205,190.16H193.8a13.41,13.41,0,0,1-13.39-13.39v-4a1,1,0,0,1,1-1h36a1,1,0,0,1,1,1v4A13.41,13.41,0,0,1,205,190.16Zm-22.59-16.42v3a11.4,11.4,0,0,0,11.39,11.39H205a11.4,11.4,0,0,0,11.39-11.39v-3Z" fill="#093f68"></path><path d="M237.67,103.38a37.77,37.77,0,1,0-67.87,22.8,55.36,55.36,0,0,1,11.3,33.47h37.62a53.69,53.69,0,0,1,11-33.09A37.61,37.61,0,0,0,237.67,103.38Z" fill="#fff"></path><path d="M218.72,160.65H181.1a1,1,0,0,1-1-1A54.69,54.69,0,0,0,169,126.78a38.76,38.76,0,1,1,69.66-23.4,38.4,38.4,0,0,1-8.16,23.8,52.88,52.88,0,0,0-10.79,32.47A1,1,0,0,1,218.72,160.65Zm-36.63-2h35.64a54.77,54.77,0,0,1,11.2-32.7,36.37,36.37,0,0,0,7.74-22.57A36.88,36.88,0,0,0,225,76.5a36.76,36.76,0,0,0-54.39,49.07A56.77,56.77,0,0,1,182.09,158.65Z" fill="#093f68"></path><rect x="176.53" y="170.14" width="45.73" height="10.45" rx="4.37" fill="#ffbc0e"></rect><path d="M217.89,181.59h-37a5.39,5.39,0,0,1-5.38-5.38v-1.7a5.38,5.38,0,0,1,5.38-5.37h37a5.38,5.38,0,0,1,5.37,5.37v1.7A5.39,5.39,0,0,1,217.89,181.59Zm-37-10.45a3.38,3.38,0,0,0-3.38,3.37v1.7a3.39,3.39,0,0,0,3.38,3.38h37a3.38,3.38,0,0,0,3.37-3.38v-1.7a3.37,3.37,0,0,0-3.37-3.37Z" fill="#093f68"></path><rect x="176.53" y="159.69" width="45.73" height="10.45" rx="4.37" fill="#ffbc0e"></rect><path d="M217.89,171.14h-37a5.38,5.38,0,0,1-5.38-5.38v-1.69a5.38,5.38,0,0,1,5.38-5.38h37a5.38,5.38,0,0,1,5.37,5.38v1.69A5.38,5.38,0,0,1,217.89,171.14Zm-37-10.45a3.39,3.39,0,0,0-3.38,3.38v1.69a3.39,3.39,0,0,0,3.38,3.38h37a3.38,3.38,0,0,0,3.37-3.38v-1.69a3.38,3.38,0,0,0-3.37-3.38Z" fill="#093f68"></path><rect x="176.53" y="149.24" width="45.73" height="10.45" rx="4.37" fill="#ffbc0e"></rect><path d="M217.89,160.69h-37a5.38,5.38,0,0,1-5.38-5.37v-1.7a5.38,5.38,0,0,1,5.38-5.38h37a5.38,5.38,0,0,1,5.37,5.38v1.7A5.38,5.38,0,0,1,217.89,160.69Zm-37-10.45a3.39,3.39,0,0,0-3.38,3.38v1.7a3.38,3.38,0,0,0,3.38,3.37h37a3.37,3.37,0,0,0,3.37-3.37v-1.7a3.38,3.38,0,0,0-3.37-3.38Z" fill="#093f68"></path><path d="M193,147.07a1,1,0,0,1-1-.84L183.25,90a1,1,0,0,1,1.72-.83c.54.57,13.41,13.93,29.6-.08a1,1,0,0,1,1.14-.11,1,1,0,0,1,.5,1l-8.32,56.26a1,1,0,0,1-2-.29l8-53.74c-12.85,9.6-23.77,3.56-28.22.16l8.3,53.57a1,1,0,0,1-.84,1.14Z" fill="#dfeaef"></path><path d="M221.46,183.26a34.19,34.19,0,0,0-4.87-4.14c-2.33-1.66-3.89-4.49-5.8-6.61-.29-.32-.68-.67-1.09-.53s-.47,1-.29,1.51l.75,2.28a21,21,0,0,0-5.09-3.42,2,2,0,0,0-.78-.24,1.87,1.87,0,0,0-1,.34,7.67,7.67,0,0,0-3.31,4.39c-1.23,4.41,4.86,6.82,7.84,8.83l7.83,5.25Z" fill="#ffc9b0"></path><path d="M215.66,191.92a1,1,0,0,1-.55-.17l-7.84-5.25c-.52-.35-1.15-.73-1.83-1.12-3.22-1.88-7.63-4.46-6.41-8.8a8.64,8.64,0,0,1,3.74-5,3,3,0,0,1,1.54-.49,2.82,2.82,0,0,1,1.19.34,21.53,21.53,0,0,1,2.8,1.6,1.76,1.76,0,0,1,1.07-2,2,2,0,0,1,2.17.8c.68.77,1.33,1.62,2,2.45a18.46,18.46,0,0,0,3.68,4,35.48,35.48,0,0,1,5,4.26,1,1,0,0,1,.08,1.3l-5.8,7.66A1,1,0,0,1,215.66,191.92Zm-11.41-18.81a1,1,0,0,0-.43.19,6.66,6.66,0,0,0-2.87,3.81c-.74,2.65,1.93,4.46,5.5,6.54.7.41,1.37.8,1.94,1.18l7,4.73,4.71-6.21a33.67,33.67,0,0,0-4.13-3.42,19.91,19.91,0,0,1-4.11-4.43c-.46-.61-.9-1.19-1.35-1.73l.56,1.69a1,1,0,0,1-.41,1.15,1,1,0,0,1-1.22-.1,20.27,20.27,0,0,0-4.84-3.26,1.61,1.61,0,0,0-.38-.14Z" fill="#093f68"></path><path d="M273.73,184.55c-7.39,1.89-28,8.69-29.35,7.8-1.76-1.19-27.5-12.56-27.5-12.56l-5.79,7.66s21,17.57,28.38,21.25,25.91-.54,34.26-2.34" fill="#68e1fd"></path><path d="M248,211.13c-3.59,0-6.76-.43-9-1.53-7.38-3.69-27.72-20.66-28.58-21.38a1,1,0,0,1-.16-1.37l5.8-7.66a1,1,0,0,1,1.2-.31c2.58,1.14,24.89,11,27.51,12.55,1.63.08,11.53-2.84,18.1-4.8,4.17-1.24,8.11-2.42,10.58-3a1,1,0,0,1,1.22.72,1,1,0,0,1-.72,1.22c-2.44.62-6.36,1.79-10.51,3-15.29,4.56-18.59,5.34-19.65,4.63S227.51,185.59,217.2,181l-4.74,6.26c3.78,3.13,21.06,17.31,27.46,20.52,6.74,3.38,24.41-.44,32.9-2.28l.7-.15a1,1,0,1,1,.42,2l-.7.16C267.13,208.81,256.4,211.13,248,211.13Z" fill="#093f68"></path><path d="M172.27,183.26c1.54-1.52,3.42-2.44,5-3.95a65.76,65.76,0,0,0,5-6c.32-.39.74-.82,1.25-.78a1.13,1.13,0,0,1,.85,1.28,3.32,3.32,0,0,1-.77,1.5,13.06,13.06,0,0,1,4.85-2.44,5,5,0,0,1,2.81-.27c1.41.4,2.89,2.67,3.47,3.94.8,1.73-.26,3.26-1.66,4.31-.53.41-14.91,10-15,10.1S172.82,184,172.27,183.26Z" fill="#ffc9b0"></path><path d="M178.12,192c-.6,0-1.51-1.22-5.67-6.8l-1-1.31a1,1,0,0,1,.1-1.31,21.4,21.4,0,0,1,2.65-2.12,18.69,18.69,0,0,0,2.36-1.85,34.15,34.15,0,0,0,3.44-4c.49-.64,1-1.28,1.49-1.9a2.52,2.52,0,0,1,2.1-1.14,1.85,1.85,0,0,1,1.27.69,2.13,2.13,0,0,1,.41.79,20.5,20.5,0,0,1,2.87-1.1,5.78,5.78,0,0,1,3.39-.28c1.87.54,3.5,3.17,4.1,4.48.88,1.91.16,3.92-2,5.53-.57.43-14.93,10-15.07,10.14A1,1,0,0,1,178.12,192Zm-4.5-8.58.43.58c1,1.4,3.22,4.31,4.22,5.61,3-2,13.72-9.19,14.21-9.56.94-.72,1.94-1.83,1.36-3.1s-2-3.15-2.84-3.4a4.17,4.17,0,0,0-2.24.27,12.21,12.21,0,0,0-4.49,2.23,1,1,0,0,1-1.46-1.35,2.75,2.75,0,0,0,.58-1s0-.07,0-.1a3.31,3.31,0,0,0-.32.35c-.5.61-1,1.23-1.46,1.86A37.24,37.24,0,0,1,178,180a21.53,21.53,0,0,1-2.58,2A21.81,21.81,0,0,0,173.62,183.39Z" fill="#093f68"></path><path d="M120,184.55c7.4,1.89,28,8.69,29.35,7.8,1.76-1.19,27.5-12.56,27.5-12.56l5.8,7.66s-21,17.57-28.39,21.25-25.91-.54-34.26-2.34" fill="#68e1fd"></path><path d="M145.74,211.13c-8.41,0-19.14-2.32-25.25-3.64l-.7-.16a1,1,0,0,1,.42-2l.7.15c8.49,1.84,26.16,5.66,32.9,2.28,6.4-3.21,23.69-17.39,27.46-20.52L176.53,181c-10.31,4.56-25.41,11.33-26.62,12.15-1.06.71-4.36-.07-19.65-4.63-4.15-1.24-8.07-2.41-10.5-3a1,1,0,0,1-.72-1.22,1,1,0,0,1,1.21-.72c2.47.63,6.41,1.81,10.58,3,6.57,2,16.45,4.89,18.1,4.8,2.62-1.54,24.93-11.41,27.51-12.55a1,1,0,0,1,1.2.31l5.8,7.66a1,1,0,0,1-.15,1.37c-.87.72-21.21,17.69-28.58,21.38C152.5,210.7,149.33,211.13,145.74,211.13Z" fill="#093f68"></path></g></svg>